<svg   
   width="1791.6133"
   height="2983.3333"
   viewBox="0 0 1791.6133 2983.3333"      
   xmlns="http://www.w3.org/2000/svg"
   >
  <g
     >
  
    <g
       id="g10"
       transform="scale(0.1)">
      <path
         d="m 7830.33,5506.5 c 6.18,8.1 10.81,11.7 12.01,16.2 53.2,197.7 72.07,400.3 88.39,603.6 23.07,287.5 -9.52,573.1 -24.42,859.3 -2.38,45.9 -17.62,91.1 -27.17,136.5 -2.69,12.8 -6.88,28.6 -22.12,27.3 -33.73,-2.9 -81.9,-13.9 -88.82,-36.6 -16.01,-52.3 -56.11,-99.4 -42.43,-160.7 39.52,-177.3 39.28,-359.4 51.16,-539 18.39,-278.2 34.88,-557.1 36.24,-836.4 0.11,-22.5 -4,-46.9 17.16,-70.2 z m 661.27,9104.2 c -21.04,-15 -22.28,-25.3 -21.62,-35.5 12.82,-198.4 -27.14,-390.2 -72.07,-581.4 -15.04,-64 -14.03,-62.7 42.65,-104.5 207.66,-153.4 412.07,-310.9 612.21,-473.9 84.04,-68.5 168.08,-137 253.29,-204 16.67,-13.1 33.5,-34.7 61.36,-18.8 49.27,28 99.38,54.7 148.72,82.6 24.21,13.7 30.76,34.1 16.33,58.8 -7.78,13.3 -16.79,25.9 -25.8,38.5 -241.41,335.5 -498.64,658.6 -767.43,972.5 -78.6,91.8 -160.63,180.6 -247.64,265.7 z M 6479.98,13054.3 c 54.28,0 109.07,4.6 162.73,-1.2 67.24,-7.2 107.09,23.2 137.49,77.6 37.78,67.6 77.55,134.1 116.03,201.4 58.95,103 118.06,206 176.06,309.6 28.14,50.2 27.44,51.4 -22.45,84.6 -25.73,17.1 -53.63,30.9 -79.64,47.6 -65.12,41.9 -140.32,65.5 -202.88,111.8 -66.07,48.9 -73.3,52.5 -129.83,-1.6 -52.69,-50.4 -104.74,-61.3 -167.53,-24.3 -15.4,9.1 -33.15,14.1 -49.32,22 -53.46,26.1 -101.8,23.2 -151.91,-13.5 -94.32,-68.9 -176.66,-151.3 -265.76,-226 -35.64,-29.9 -43.34,-59.8 -21.89,-100.3 77.3,-145.9 153.84,-292.2 230.77,-438.3 17.39,-33.1 43.06,-47.4 82.08,-43.6 61.79,6.1 124.01,6.7 186.05,-5.8 z m -661.86,393.7 c -18.38,-0.9 -27.4,-10.9 -35.89,-19.9 -132.92,-141.5 -256.3,-290.4 -362.79,-453.5 -39.95,-61.1 -39.05,-121.9 -20.39,-184.9 29.23,-98.8 62.93,-196.2 95,-294.1 83.55,-255.1 151.34,-514.4 211.04,-776 9.75,-42.7 28.06,-83.2 31.07,-127.8 1,-14.7 4.14,-33.5 24.16,-34.4 23.66,-1 28.44,19.3 32.17,36.8 5.37,25.3 6.27,51.6 13.12,76.4 61.27,221.5 98.57,448.3 144.1,673.1 32.26,159.3 66.39,318.4 108.3,475 21.3,79.6 19.62,145.5 -22.73,213.1 -8.17,13.1 -13.51,27.9 -20.49,41.7 -63.85,126.4 -123.39,255.2 -196.67,374.5 z M 7518.9,11588.3 c 15.4,10.2 14.67,26.6 18.45,41.3 25.05,97.2 49.44,194.7 75.95,291.6 35.33,129.1 72.91,257.6 108.57,386.7 39.08,141.4 75.21,283.7 116.32,424.5 22.27,76.3 42.98,148.5 -33.87,207.5 -9.73,7.5 -14.6,21.1 -22.15,31.6 -140.95,195.2 -295.76,378.6 -470.35,544.7 -48.15,45.8 -58.7,45.6 -92.82,-11.8 -80.38,-135.2 -157.96,-272.1 -235.57,-409 -11.06,-19.5 -26.85,-43.9 -11.4,-65.4 28.67,-39.8 28.94,-87.3 43.61,-130.7 50.26,-148.8 102.82,-296.9 156.87,-444.4 99.28,-270.8 200.34,-541 300.32,-811.6 8.99,-24.3 14.83,-50.2 46.07,-55 z m -613.71,2447.3 c 9.66,-22.1 32.39,-26.4 49.56,-35.5 179.15,-94.3 341.39,-210.7 485.02,-354.3 135.33,-135.2 265.11,-274.9 384.86,-424.3 41.31,-51.5 75.65,-110 130.33,-152.8 6.44,9.3 12.67,14.9 14.6,21.7 42.04,148.6 87.71,296.3 124.2,446.3 44.42,182.5 96.12,363.1 138.34,546.3 40.38,175.1 64.87,349.8 50.3,528.9 -7.8,95.8 -41.83,185.6 -68.8,276.9 -3.81,12.9 -13.14,23 -26.55,25.8 -20.12,4.3 -25.62,-12.1 -32.9,-25.7 -26.07,-48.6 -64.58,-86.6 -105.63,-122.4 -84.02,-73.1 -177.78,-132.4 -272.62,-189.9 -273.25,-165.7 -546.91,-330.8 -820.35,-496.2 -19.44,-11.8 -40.27,-22.3 -50.36,-44.8 z m -2022.67,969.5 c -45.44,-65.1 -57.82,-104.5 -59.35,-190.6 -0.45,-25.7 2.14,-51.2 -7.87,-76.3 -21.9,-55 -20,-113.2 -7.44,-168.2 38.96,-170.6 77.55,-341.6 126.05,-509.6 64.95,-225 133.13,-449.2 211,-670.2 29.94,-85.1 60.54,-169.8 91.97,-254.3 19.34,-52 36.64,-53.4 72.49,-8 1.6,2 3.07,4.1 4.59,6.2 99.03,135.9 211.69,260.4 324.15,385 145.56,161.3 302.11,311.3 466.55,453.3 44.14,38.1 42.77,47.7 -3.05,80.3 -60.95,43.4 -122.97,85.3 -183.13,129.7 -274.08,202.3 -550.01,402.2 -807.21,626.4 -75.59,65.9 -146.76,137.4 -228.75,196.3 z m 3207.04,656.3 c -33.52,-0.1 -43.85,-12 -53.95,-23.6 -145.59,-167 -318.52,-301 -503.32,-421.5 -161.51,-105.4 -337.72,-176.9 -521.6,-229.4 -155.46,-44.3 -316.4,-41.5 -476.68,-42.8 -132.71,-1 -262.69,18.1 -390.85,47.8 -143.25,33.2 -279.32,88.9 -414.58,146.2 -265.97,112.6 -514.29,252 -716.44,463.3 -11.26,11.8 -22.82,30.4 -45.43,18.9 -11.72,-24.6 -5.81,-50.8 -6.71,-76.4 -3.62,-101.4 24.32,-200.3 25.06,-301.1 0.36,-48.3 19.46,-81.4 53.72,-113.5 426.65,-399.9 876.56,-768.6 1393.91,-1047.9 48,-26 91.26,-43.7 143.05,-7.3 31.23,21.9 69.58,33.4 103.5,51.8 346.9,188.7 682.94,395.4 1011.93,613.6 83.77,55.5 169.41,109.1 240.64,181.6 36.95,37.6 58.84,81.7 74.91,132.7 30.68,97.1 36.17,198.1 51.44,297.2 15.6,101.3 11.36,205.3 31.4,310.4 z m -6721.31,-9138 c 2.16,-6.2 4.31,-12.5 6.47,-18.7 64.46,12.6 129.52,22.7 193.29,38.1 169.13,40.8 339.54,63.2 514.18,54.4 71.69,-3.6 137.07,-22.6 199.85,-54 98.27,-49.1 181.5,-118.1 256.38,-197.8 19.19,-20.4 35.53,-48.2 69.54,-40.4 52.96,12.1 107.68,9.3 160.64,25.2 64.06,19.1 130.05,33.5 196.16,43.8 173.42,27.2 343.26,71.5 515.09,106.2 52.73,10.6 107.34,16.5 158.58,34.6 49.96,17.6 55.68,32.5 28.84,79.6 -94.62,166.1 -195.29,328.5 -299.86,488.5 -18.31,28 -39.57,54.9 -70.29,71.1 -44.4,23.4 -66.91,60.7 -79.09,108.8 -39.22,154.7 -81.69,308.7 -121.28,463.4 -31.36,122.5 -84.72,229.2 -179.99,317.8 -128.78,119.8 -256.03,241.3 -392.95,351.5 -138.77,111.7 -283.4,216.2 -442.21,298.6 -38.55,20 -77.22,42.5 -122.19,46.1 -17.46,1.4 -37.88,5.8 -48.01,-14.5 -7.77,-15.5 0.41,-31 9.37,-43.4 34.78,-48.1 70.58,-95.2 112.3,-138.2 88.56,-91.2 196.38,-160.8 283.53,-252.6 66.72,-70.3 141.86,-126 224.96,-174.7 89.09,-52.2 179.52,-108.1 246.48,-186 97.41,-113.3 181.91,-237.7 271.41,-357.8 9.17,-12.3 16.56,-26.6 21.91,-40.9 14.34,-38.6 4.17,-76 -24.89,-97.9 -28.78,-21.6 -67.94,-21.5 -100.84,3.6 -16.18,12.4 -30.34,28.3 -42.59,44.7 -71.17,95.4 -145.65,188.1 -224.95,276.8 -25.61,28.7 -39.58,66 -73.86,88.7 -71.06,47 -141.08,95.3 -219.36,130.2 -19.27,8.6 -38.51,14.5 -59.41,16 -210.09,15.5 -418.87,0.6 -624.92,-39 -149.06,-28.7 -297.4,-63.6 -440.5,-116.4 -96.7,-35.6 -193.33,-71.5 -282.087,-125.1 -19.269,-11.6 -39.367,-22.5 -44.855,-59.7 104.462,-3.8 204.322,-10.8 303.362,8.5 122.01,23.9 246.11,32 369.03,45.1 156.4,16.6 314.59,15.7 472.79,9 161.63,-6.7 296.32,-68.4 410.17,-175.2 139.99,-131.3 291.55,-247 447.14,-358.2 31.52,-22.6 64.84,-43 94.35,-67.9 35.23,-29.7 43.01,-75.6 23.8,-112.3 -17.75,-33.9 -52.62,-47.2 -100.45,-38 -20.5,4 -39.4,10.9 -56.65,23.7 -29.01,21.5 -60.04,40.3 -88.98,61.9 -151.22,113 -300.81,228.3 -438.94,356.9 -84.2,78.5 -180.67,104.5 -291.41,95.9 -77.09,-6 -153.91,-17.8 -231.86,-5.1 -21.81,3.6 -46.43,-3.1 -68.52,-9.5 -128.72,-36.8 -257.31,-74.2 -385.47,-112.9 -171.57,-51.9 -328.02,-135.9 -478.546,-231.3 -17.449,-11 -49.863,-22.8 -39.785,-50.2 10.508,-28.5 40.441,-11.4 61.59,-9.6 244.711,21.1 488.921,46 735.451,40.1 165.36,-4 330.99,-12.9 496.51,-2.5 69.51,4.4 132.8,-21.4 194.56,-45.3 143.75,-55.6 264.03,-150.1 382.03,-246.8 17.6,-14.4 32.3,-33.7 44.33,-53.2 19.84,-32.2 15.11,-65 -8.72,-93.6 -24.66,-29.6 -57.81,-34.6 -91.53,-20.9 -21.05,8.6 -39.44,24.1 -58.31,37.5 -92.54,65.8 -185.61,130.3 -286.03,184.4 -100.98,54.3 -200.92,54.7 -304.44,12.9 -169.98,-68.8 -335.6,-146.9 -493.36,-240.3 -65.86,-39 -133.52,-77.1 -186.96,-133.7 z m 5385.94,1052.1 c 2.32,27.9 4.71,55.7 6.92,83.6 3.67,46.4 4.15,93.3 11.39,139.1 22.56,142.9 25.7,288 51.15,430.6 15.86,89 25.89,178.9 40.13,268.1 17.47,109.6 35.81,219 55.25,328.2 23.05,129.6 47.12,258.9 71.76,388.2 26.07,136.8 53.08,273.4 80.18,410 26.09,131.5 51.92,263.1 79.52,394.2 24.43,116 50.81,231.6 76.95,347.2 23.88,105.6 47.77,211.2 73.14,316.5 35.04,145.3 72.93,290 106.39,435.7 9.75,42.5 10.51,88.3 -2.61,130.8 -51.59,167.4 -104.22,334.5 -163.97,499.3 -77.31,213.2 -152.5,427.1 -230.54,640 -53.19,145.2 -109.58,289.2 -164.82,433.6 -14.45,37.8 -37.3,59.3 -82.68,48.7 -58.6,-13.5 -118.2,-6.1 -177.71,-3.3 -85.21,3.9 -170.64,2.8 -255.94,4.9 -37.3,1 -59.05,-7.9 -72.87,-49.9 -47.65,-144.8 -84.53,-292.3 -115.37,-440.9 -25.64,-123.7 -52.49,-247.2 -74.88,-371.6 -26.91,-149.5 -61.83,-297.7 -88.37,-447.5 -10.77,-60.8 -21.92,-122 -35.4,-182.1 -14.51,-64.6 -17.86,-135.4 -60.45,-190.4 -30.61,-39.5 -31.29,-81 -22.05,-124.8 13.84,-65.6 30.59,-130.6 45.68,-195.9 26.09,-113 52.45,-226 77.59,-339.2 25.16,-113.3 48.54,-227 73.48,-340.3 26.6,-120.9 54.39,-241.5 81.13,-362.3 25.07,-113.4 47.81,-227.2 74.52,-340.2 34.39,-145.5 75.96,-289.4 106.69,-435.6 39.28,-186.9 89.33,-370.9 139.43,-554.8 66.36,-243.6 139.02,-485.5 212.82,-727 19.98,-65.4 30.65,-135.3 83.54,-192.9 z m 169.16,12785.8 c -126,-6.7 -342.64,1.1 -559.39,-30 -210.59,-30.3 -414.97,-82.6 -617.42,-141.7 -255.11,-74.5 -500.5,-177.2 -735.83,-301.6 -125.61,-66.3 -248.86,-137.7 -347.31,-243.4 -75.48,-81.1 -138.12,-175.6 -144.51,-284.7 -15.23,-259.6 -75.56,-510.1 -131.07,-762 -31.78,-144.2 -61.66,-288.2 -44.29,-437.2 4.57,-39.2 -0.37,-78 -9.38,-115.6 -15.39,-64.2 -74.7,-87.7 -132.62,-55.3 -23.04,12.9 -39.46,33 -58.19,50.8 -20.45,19.4 -40.59,39.1 -70.39,45.8 -117.72,26.4 -268.31,-41.7 -323.69,-149.6 -45.93,-89.6 -62.76,-187.4 -56.17,-285.8 13.59,-203.5 64.12,-397.5 177.83,-570.3 64.12,-97.4 132.08,-192.4 238.13,-249.8 56.95,-30.9 116.09,-55.6 183.67,-49.4 66.88,6.1 102.92,44.5 97.69,110.7 -3.71,47 -1.29,93.4 9.3,138.8 10.9,46.9 43.28,70.6 89.17,70.6 44.16,0 78.41,-25.9 89.43,-71.3 4.81,-19.7 6.69,-41.3 4.65,-61.5 -9.08,-90.1 15.43,-175.9 41.64,-258.6 56.83,-179.5 127.36,-354.3 211.97,-522.8 138.49,-275.9 333.52,-502.5 590.84,-674.6 107.64,-72 226.04,-123.1 342.28,-178.5 208.74,-99.4 427.91,-167.8 657.19,-193 244.67,-26.9 484.91,6.7 714.68,97 273.87,107.5 506.05,277.9 706.55,490.9 260.97,277.2 468.61,589.9 605.53,946.6 48.9,127.4 94.7,256.5 91.51,396.7 -1.25,54.3 21.17,84.8 62.63,94.3 41.79,9.6 85.83,-13.7 107.02,-58 20.63,-43.1 25.63,-89 21.93,-136.3 -8.13,-103.8 41.39,-104.2 120.75,-93.4 9.87,1.4 18.94,8 28.6,11.6 92.28,34.4 164.68,95.9 228.34,168.7 106.02,121.3 169.75,262.1 205.04,419.5 32.16,143.3 25.84,282.8 -20.87,419.5 -21.51,63 -55.66,122.3 -107.76,168.2 -51.79,45.6 -110.86,73.9 -179.59,82.7 -49.21,6.4 -81.94,-21.2 -116.77,-49.5 -32.58,-26.4 -69.59,-46.9 -113.92,-23.9 -41.57,21.7 -53.02,57.5 -55.98,102.5 -8.54,129.3 -8.39,258.6 -6.64,387.9 2.82,207.6 -16.88,412.6 -57.61,616.3 -32.95,164.8 -99.34,313.4 -192.66,452.2 -91.51,136.1 -220.95,230.5 -348.19,327.9 -163.76,125.5 -346.93,226.6 -484.02,385.5 -17.12,19.9 -38.38,23.8 -62.97,20.9 -185.89,-21.7 -372.23,-6.4 -649.13,-7.8 z M 2349.77,6269.4 c -83.04,71.5 -159.93,134.8 -265.3,141.1 -157.74,9.3 -315.28,6.3 -470.29,-31.4 -18.01,-4.4 -33.26,-13.2 -49.7,-20.5 -96.76,-42.8 -198.28,-56 -302.83,-42 -132.11,17.7 -183.94,134.3 -108.23,245.4 45.81,67.3 110.97,114.9 176.42,161.5 97.07,69.1 203.56,122.1 307.69,179.1 9.06,4.9 18.77,8.4 22.49,19.9 -7.21,24 -28.32,18.3 -44.81,18.2 -134.55,-0.7 -269.1,-1.9 -403.64,-3.9 -70.61,-1 -138.05,-22.2 -205.15,-40.1 -71.635,-19.1 -143.182,-21.7 -215.475,-17.4 -68.343,4 -124.16,31.2 -156.257,96.9 -31.934,65.4 -7.762,122.5 28.066,174.3 58.559,84.7 142.598,141.1 230.996,190.9 53.969,30.4 108.53,59.8 162.72,89.8 8.64,4.8 19.26,8.5 15.83,28.2 -19.76,13.1 -46.15,9 -70.26,7.5 -61.36,-3.8 -118.212,13.5 -173.407,35.6 -116.824,46.7 -147.672,166.3 -69.555,265.1 47.871,60.6 114.742,96.5 182.11,128.7 144.412,69 295.802,118.9 449.862,162.8 181.73,51.9 367.91,79.1 552.95,112.9 37.87,6.9 77.39,4.3 116.02,7.6 22.05,1.9 47.19,-6.8 66.6,17.4 -14.02,34.6 -45.51,54.4 -72.28,76.9 -101.23,85.3 -197.05,175.6 -275.29,282.9 -46.03,63.2 -86.67,128.6 -81.86,212.3 4.56,79.3 48.97,134 125.55,157 110.34,33.2 208.96,-2.1 305.62,-48.5 164.06,-78.7 306.32,-190.9 451.75,-298.1 20.27,-14.9 35.36,-38.3 75.42,-38.4 -22.49,73.2 -22.26,147.1 -36.47,219.6 -18.39,93.6 -35.92,187.5 -50.93,281.8 -8.96,56.2 -24.44,110.9 -36.21,166.4 -37.41,176.5 -79.3,352.1 -123.58,527.1 -29.08,114.8 -64.51,228.2 -98.5,341.8 -34.74,116 -72.39,231.2 -106.12,347.5 -9.23,31.9 -11.97,66.5 -12.33,99.8 -0.56,51.8 23.45,82.6 65.87,92.9 35.84,8.7 71.32,-7.7 97.15,-47.8 33.01,-51.1 36.02,-112.3 52.86,-168.8 29.41,-98.7 53.54,-199 79.58,-298.7 26.06,-99.8 52.81,-199.4 77.34,-299.5 39.24,-160.3 76.7,-320.9 115.3,-481.3 13.28,-55.3 20.47,-111.6 32.64,-167.2 28.71,-130.9 46.07,-264.3 72.86,-395.7 28.32,-138.9 62.46,-276.7 93.5,-415.1 5.65,-25.2 25.28,-37.8 42.12,-53.6 65.96,-62 133.09,-122.8 197.07,-186.8 71.46,-71.4 109,-160.5 132.46,-258.3 36.62,-152.7 71.05,-306.3 124.66,-454.4 30.27,-83.5 87.81,-151.8 135.36,-225.3 113.61,-175.7 230.21,-349.5 338.71,-528.5 38.57,-63.7 39.35,-62.6 110.32,-49.2 205.22,38.8 410.04,79.3 614.22,123.4 65.27,14 132.28,21.3 198.39,33 172.69,30.6 345.5,60.2 517.74,93.6 144.23,27.9 290.11,47.3 434.94,72.3 50.76,8.8 99.88,24.7 152.02,29.1 57.59,4.9 68.19,27 38.21,76.9 -78.67,131 -142.86,269.4 -208.4,406.8 -197.64,414.5 -393.53,829.9 -587.23,1246.2 -168.7,362.7 -339.26,724.4 -512.12,1085 -279.96,584.2 -584.04,1155.7 -888.12,1727.4 -129.62,243.7 -256.93,488.6 -386.74,732.2 -15.08,28.2 -25.33,56.9 -28.19,87.6 -4.72,50.5 19.58,88.4 62.78,104.3 43.12,15.9 89.9,4.3 118.81,-32.3 14.28,-18.1 26.33,-38.7 35.76,-59.8 204.43,-457.3 447.39,-895.2 676.64,-1340 329.98,-640.3 647.95,-1286.3 949.66,-1940.5 258.32,-560.1 516.02,-1120.6 801.61,-1667.7 52.35,-100.3 97.12,-206 178.91,-288.3 1.77,-1.8 2.69,-4.4 4.22,-6.5 16.46,-22.3 14.1,-59.4 45.72,-68.7 35.48,-10.4 71.47,-0.2 107.07,7.2 98.39,20.5 196.75,41.7 296.84,52.3 83.3,8.7 93.56,25.2 71.06,103 -48.65,168.3 -94.68,337.3 -141.91,505.9 -36.83,131.6 -74.61,262.9 -110.56,394.7 -35.96,131.8 -71,263.9 -104.94,396.2 -38.44,149.9 -77.72,299.6 -111.86,450.5 -26.19,115.7 -56.27,230.4 -78.53,347.2 -31.85,167.1 -64.69,334.3 -108.29,499.1 -28.34,107.1 -48.19,216.5 -72.68,324.7 -26.76,118.2 -55.05,236.1 -81.65,354.4 -25.46,113.2 -49.29,226.9 -74.42,340.2 -23.99,108.3 -48.03,216.5 -73.31,324.5 -27.04,115.5 -55.01,230.8 -83.57,345.9 -33.53,135.1 -65.51,270.7 -102.97,404.7 -44.4,158.9 -86.39,318.6 -143.14,473.8 -56.59,154.7 -103.34,312.6 -183.74,458.8 -44.21,80.3 -67.41,172.6 -97.22,260.5 -73.73,217.3 -145.64,435.2 -218.68,652.7 -15.78,47 -30.13,51.2 -72.1,19.5 -288.8,-217.9 -578.48,-434.8 -865.34,-655.3 -143.27,-110.1 -281.05,-227.4 -421.61,-341 -36.25,-29.3 -71.76,-59.2 -103.17,-93.9 -15.69,-17.2 -32.71,-32.6 -54.9,-42.1 -44.04,-18.8 -87.45,-13.8 -114.29,17.4 -28.56,33.1 -28.05,71.1 -11.32,109.3 14.98,34.1 43.04,58.6 70.6,81.4 71.59,59.4 145.56,115.9 218.02,174.2 27.74,22.3 60.7,39.3 81.61,75.3 -18.19,23.4 -46.07,30.6 -71.37,40.1 -119.18,44.7 -152.33,121.4 -98.79,237.1 61.96,133.8 133.93,262.1 216.43,384.4 25.98,38.5 49.1,79.3 82.29,112.5 43.26,43.3 84.62,50.8 124.27,23.4 35.3,-24.5 46.62,-66.6 22.95,-118.4 -21.34,-46.8 -49.34,-90.7 -76.58,-134.5 -54.52,-87.7 -110.35,-174.6 -153.2,-268.9 -24.81,-54.6 -17.23,-55.5 36.95,-80.7 95.71,-44.7 165.67,-18.9 244.66,44.3 250.07,200.2 508.72,389.6 753.51,596.6 15.78,13.3 29.52,29.3 46.22,41.3 49.6,35.5 53.76,74.5 34.56,133.9 -41.14,127.3 -81.37,255.4 -109.03,386.8 -6.82,32.4 -15.6,65 -38.2,90.1 -28,-3.7 -43.39,-21.7 -60.92,-36.5 -199.69,-168.1 -399.52,-336.2 -599.15,-504.4 -21.86,-18.5 -43.18,-36.7 -72.82,-42.1 -35.9,-6.5 -67.87,-0.1 -91.26,28.7 -24.21,29.9 -33.54,63.4 -16.47,101.2 13.23,29.3 34.97,49.1 60.14,68.8 242.19,189.5 483.45,380.2 715.53,582.1 44.13,38.4 74.55,80.1 89.81,139.4 32.77,127.4 75.92,252.1 148.83,363.7 15.23,23.4 15.04,49 12.67,75 -11.96,131.5 -15.24,263.5 -13.79,395.5 0.8,73.1 -24.83,142.4 -24.83,215.1 0,14.5 -7.6,30.4 -15.42,43.5 -117.27,195.7 -196.82,408.2 -276.35,620.6 -11.49,30.7 -24.47,31.7 -51.54,21.2 -180.92,-69.6 -335.88,-4.3 -474.33,105.5 -163.88,129.9 -268.43,305.5 -344.03,498.1 -65.79,167.7 -98.35,342.1 -92.52,522.7 7.36,228.2 89.31,412.3 307.71,513.8 35.54,16.5 40.32,41 35.54,75.5 -7.13,51.5 -27.44,99.3 -38.2,150 -33.67,158.8 -77.83,315.4 -111.24,474.3 -39.77,189.1 -88.8,376.5 -105.84,570.2 -6.78,77 -23.88,152.7 -25.33,230.9 -3.87,209.7 51.55,399 186.91,560.5 44.33,52.9 32.55,103 16.64,159.2 -31,109.7 -57.37,220.7 -41.25,336 23.81,170.4 77.09,330.6 163.23,480.6 119.96,208.9 292.3,366 484.17,505.5 232.08,168.7 489.84,283.7 760.91,373.4 119.97,39.7 239.87,81 362.93,107.1 135.98,28.8 272.7,55.6 410.6,76.7 249.74,38.2 500.01,35 750.87,27.9 194.41,-5.4 384.74,-35 572.96,-85.5 135.38,-36.3 266.17,-81.4 387.91,-150.6 197.49,-112.2 340.05,-276.2 436.84,-479.5 26.09,-54.8 60.52,-81.6 119.79,-94.9 124.66,-28 236.11,-90.5 341.91,-159.7 318.18,-208.2 561.86,-483.7 734.75,-822.7 59.77,-117.2 91.65,-242.6 104.15,-370.6 17.1,-174.8 20.38,-350.9 -10.94,-526 -18.17,-101.5 -29.25,-204.4 -43.84,-306.6 -9.85,-69 -25.24,-137 -37.28,-205.7 -28.97,-165 -65.04,-328.6 -92.41,-494.2 -15.11,-91.4 -21.58,-184.6 -46.24,-274.9 -15.99,-58.5 -6.4,-71.5 49.33,-95 164.65,-69.2 265.82,-198.4 313.07,-363 96.48,-336 31.11,-648.9 -162.69,-936.6 -87.03,-129.2 -200.35,-229.6 -342.84,-293.9 -80.86,-36.5 -165.37,-61.1 -255.56,-37.8 -37.33,9.7 -59.8,-3.4 -71.99,-38.6 -68.88,-198.8 -171.64,-380.4 -284.55,-556.6 -22.66,-35.4 -42.19,-71.1 -37.37,-115.5 1.08,-9.9 -1.6,-20.8 -5.07,-30.4 -70.12,-193.2 -51.85,-398.3 -80.65,-597 -2.96,-20.4 -2.35,-42.2 8.3,-60.8 53.26,-92.6 70.94,-198.9 113.27,-295.8 10.85,-24.8 19.91,-47.8 46.93,-57.3 35.59,-12.5 60.3,-39.3 86.48,-64.2 123.96,-117.9 233.53,-248.8 342.44,-380.3 89.05,-107.6 179.61,-213.9 267.24,-322.5 30.85,-38.3 63,-54.8 113.33,-44 51.09,11 100.54,-1.7 151.1,-19.4 204.1,-71.6 409.28,-140 616.17,-203.4 172.37,-52.7 342.87,-111.9 514.47,-167.3 110.4,-35.6 221.3,-69.3 332,-104.1 113,-35.6 225.9,-71.4 338.8,-107.1 154.7,-49 309.7,-97 464,-147.2 127.3,-41.4 254,-84.8 380.8,-128 143.7,-49 287.5,-97.8 430.8,-148.2 181.2,-63.7 272,-204.4 317.6,-381.2 10.6,-40.9 -15.2,-86.4 -51.6,-103.1 -35,-16.1 -74.3,-5.4 -102.3,32 -16.8,22.5 -30.7,47.8 -42.7,73.4 -49.8,105.6 -128.1,177.7 -239.2,216.9 -238,84 -473,176.4 -710.6,261.8 -191.7,68.9 -383.7,136.3 -577.2,199.4 -213.1,69.5 -426.9,137 -640.7,204.4 -186.8,58.8 -373.2,119 -561.22,173.4 -150.9,43.7 -303.71,80.7 -453.76,127.7 -14.53,4.5 -30.34,6.5 -43.85,-6.3 -4.46,-24.2 15.27,-36.7 27.38,-52.1 115.18,-146.2 230.98,-291.9 346.47,-437.9 9.61,-12.1 19.22,-24.5 27.21,-37.7 43.48,-72 31.57,-142.4 -37.13,-190.2 -42.18,-29.3 -89.53,-51.1 -134.41,-76.6 -13.35,-7.6 -26.95,-15 -39.12,-24.3 -17.71,-13.5 -20.14,-28.8 -1.82,-44.7 11.71,-10.2 22.32,-21.6 34.37,-31.3 30.16,-24.3 61.06,-47.7 91.27,-71.9 55.43,-44.4 70.38,-103.1 38.23,-148.2 -30.07,-42.2 -95.08,-45.6 -153.9,-6.6 -21.47,14.3 -41.95,30.5 -60.9,48 -231.95,214 -474.07,416.1 -717.64,616.6 -117.84,96.9 -243.05,183.9 -368.46,270.6 -10.55,7.3 -22.19,13.4 -34.07,18.3 -27,11 -44.39,2.7 -51.83,-26.7 -31.64,-125 -63.11,-249.9 -95.91,-374.6 -40.59,-154.2 -72.49,-310.3 -134.86,-459.2 -36.22,-86.5 -53.6,-182.3 -81.61,-273.3 -47.02,-152.7 -92.13,-306 -137.27,-459.2 -38.56,-131 -76.55,-262.2 -113.89,-393.5 -37.35,-131.4 -78.77,-261.9 -109.02,-394.9 -42.33,-186.2 -103.02,-367.3 -143.09,-554 -32.44,-151.2 -73.68,-300.6 -109.56,-451.1 -25.1,-105.3 -47.97,-211.1 -71.44,-316.8 -28.51,-128.4 -59.93,-256.3 -83.91,-385.5 -24.93,-134.5 -55.29,-267.8 -77.41,-403 -23.73,-144.9 -41.66,-291.3 -78.71,-434.1 -15.53,-59.8 -21.81,-122.2 -30.66,-183.1 -26.32,-181.4 -55.95,-362.2 -77.5,-544.4 -19.78,-167.2 -22.22,-335.4 -43.56,-502.2 -8.84,-69.1 -9.34,-139.3 -12.91,-209 -2.9,-56.7 -1.81,-112.9 -26.17,-167.3 -18.37,-41 -6.28,-54.9 40.37,-58 43.81,-2.9 86.86,-2.7 130,13 60.5,22.1 125.74,27.5 188.54,40 60.56,12.1 119.14,35.1 181.7,37.9 22.1,1 39.27,9.6 44.38,34.9 34.86,172.8 105.47,334.2 164.53,499 87.88,245.2 178.85,489.5 276.94,730.7 144.78,356.1 288.49,712.6 444.33,1064.1 193.51,436.5 394.35,869.6 594.28,1303.1 247.44,536.6 505.07,1068.3 761.22,1600.7 19,39.5 40.71,78.1 64.83,114.6 16.9,25.6 37.93,49.4 60.86,69.9 44.96,40 98.2,43.9 134.29,13.5 32.19,-27 37.59,-77.8 5.89,-128.1 -53.75,-85.3 -102.8,-173.1 -148.97,-262.6 -233.28,-451.8 -467.83,-903 -682.23,-1364.3 -178.39,-383.7 -367.62,-762.3 -538.97,-1149.4 -174.39,-394 -346.32,-789 -502.87,-1190.4 -134.92,-346 -266.24,-693.5 -378.11,-1047.7 -16.91,-53.6 -38.94,-107 -42.42,-164.8 -1.85,-30.7 7.58,-40.9 40.05,-37.4 52.28,5.6 99.57,27.4 148.97,41.4 173.35,49.3 343.84,107.8 514.62,165.5 141.29,47.8 281.1,101.7 429.06,127.8 33.42,5.9 67.41,11.7 100.29,6.2 109.52,-18.5 221.14,-19.1 330.05,-44.5 82.69,-19.3 168.1,-26.6 251.64,-42.7 113.84,-21.9 227.52,-45.1 340.4,-71.5 107.76,-25.2 214.69,-54 321.49,-83.3 129.1,-35.4 257.5,-73.1 386.3,-109.6 158.5,-44.8 134.8,-33.3 144.2,90.7 12.7,167.6 29.6,334.7 46.8,501.8 13,125.9 33.5,250.9 48.4,376.6 12.2,102.7 25.5,205.1 39.6,307.5 17.5,127.9 32.9,256.1 55.4,383.3 13.1,73.7 20.3,148.6 29.3,222.8 20.3,166.7 48.4,332.3 77,497.4 26.4,152.4 45,306 77.8,457.7 26.6,123.3 44.1,248.8 71.4,372.4 10,45.3 18.8,90.9 27.8,136.5 7.4,37.4 30.6,59.6 67.2,65.9 36.1,6.3 65.9,-7.1 89.3,-35.1 45.2,-54.1 40.1,-118.9 24,-177.8 -40.2,-146.9 -77.9,-294.6 -105.2,-443.8 -24.1,-131.9 -61.4,-261.1 -77.2,-394.8 -9.9,-84.4 -29.8,-167.6 -45.2,-251.4 -16.8,-91.4 -25,-184 -43.3,-275.3 -22.3,-111.3 -38.2,-223.9 -54.2,-336.4 -15.4,-107.3 -27.4,-215.2 -40.9,-322.8 -15.8,-125.6 -32.8,-251 -47.1,-376.7 -15.3,-133.6 -30.1,-267.2 -41.2,-401.1 -9.4,-113.5 -13.5,-227.3 -19.2,-341 -1.3,-25.8 -1.3,-51.9 1.6,-77.5 6.3,-56.9 21.2,-107.4 64.2,-152.8 97.6,-103.2 163.5,-226.5 187.1,-367.8 21.8,-131.2 25.3,-263 -28.9,-388.9 -29.3,-68.1 -77.4,-123 -139.5,-162.6 -48.9,-31.3 -90.7,-67.8 -122.7,-116.1 -12.9,-19.6 -29.1,-36.1 -50,-47.9 -40.3,-22.8 -79.5,-21.5 -107.4,6.3 -29,28.9 -33.2,62.6 -15.9,99.7 38.2,81.5 92.8,149.7 168.6,198.3 73.1,46.8 110,115 120.6,197.7 5.3,40.6 6.4,83.6 -0.8,123.8 -17.9,99.2 -46.7,194.7 -102.9,281.3 -46.6,71.8 -120.8,94.7 -193.2,118.9 -156.1,52.4 -312.9,103.7 -471.5,147.7 -138.9,38.6 -278.05,76.2 -418.76,108.6 -125.74,29 -252.09,55.9 -378.88,76.5 -190.75,31.1 -382.24,68.3 -577.9,44.2 -100.58,-12.3 -194.86,-48 -291.19,-75.8 -121.24,-34.8 -241.03,-74.8 -361.44,-112.6 -14.73,-4.6 -29.63,-8.8 -44.16,-14 -35.17,-12.6 -57.21,-33.4 -48.57,-75.2 3.1,-15 1.15,-31 2.88,-46.4 46.23,-412.7 40.53,-826.5 28.9,-1240.5 -2.82,-100.2 7.51,-107.2 104.75,-78.8 175.49,51.2 351.76,99.7 526.88,152.1 116,34.8 229.13,77.9 337.57,132.5 25.32,12.8 50.72,25.9 77.28,35.5 41.73,15.2 82.35,1.6 102.12,-31.2 19.67,-32.7 11.89,-73.4 -20.95,-104.9 -14.93,-14.4 -32.2,-25.2 -50.85,-35 -31.95,-16.7 -62.94,-35.5 -93.02,-55.4 -33.93,-22.4 -34.85,-43.3 0.3,-61.2 54.98,-28.1 111.85,-52.1 171.37,-70.2 131.31,-39.8 266.06,-37.4 399.93,-28.8 81.77,5.2 162.35,28.1 243.67,41.9 151.97,25.8 286.67,97.7 426.37,156.6 83.3,35.1 173.1,49.8 259.3,75.8 9.7,2.9 20.6,2.6 30.9,2.8 50.3,1 79.9,-16.4 92.8,-53.8 13.6,-39.5 -2.8,-73.3 -46.5,-104 -28.5,-20 -61.8,-25.8 -93.4,-36.4 -132,-44.1 -259.2,-100.1 -387.4,-153.7 -105.1,-43.9 -217.67,-62.2 -328.8,-84.4 -101.55,-20.2 -203.7,-29.8 -307.69,-32.9 -177.36,-5.4 -343.35,33.9 -503.52,104.3 -38.14,16.7 -76.54,31.8 -116.61,41.4 -31.83,7.7 -60.07,18.5 -74.54,49.3 -13.75,29.2 -35.77,30.1 -64.05,29.1 -65.67,-2.4 -127.11,-25.4 -188.6,-41.9 -166.56,-44.7 -333.72,-88.2 -496.91,-145.2 -37.13,-12.9 -53.31,-32.6 -61.42,-69.6 -35.94,-163.8 -74.18,-329.2 -139.94,-481.8 -44.94,-104.2 -46.71,-196.1 -24.15,-299 17.1,-78 3.91,-159.3 27.21,-238.2 14.51,-49.1 -34.53,-106.8 -97.99,-121.6 -107.9,-25.2 -217.17,-44.5 -325.73,-66.9 -78.17,-16.1 -156.55,-31.6 -234.02,-50.6 -60.17,-14.8 -121.76,-23.8 -182.19,-34.5 -172.71,-30.6 -342.95,-72.3 -514.89,-106.1 -161.68,-31.8 -321.06,-75.2 -481.65,-112.6 -60.21,-14.1 -120.68,-27.4 -181.56,-38 -33.24,-5.8 -42.23,-20.1 -36.44,-52.9 24.27,-137.3 47.05,-274.8 69.42,-412.3 24.44,-150.3 41.7,-302 73.2,-450.8 40.08,-189.1 60.39,-382.2 113.19,-568.8 17.45,-61.6 -1.74,-114 -46.72,-133.6 -51.44,-22.4 -109.01,3.3 -139.44,63.7 -8.01,15.9 -15.81,33.5 -17.27,50.8 -7.85,92.8 -29.87,183.4 -36.44,276.8 -7.04,100.1 -31.04,198.8 -44.39,298.6 -12.67,94.7 -34.56,187.7 -48.8,282.2 -25.35,168.3 -46.64,338.1 -95.74,501.4 -26.06,86.7 -30.6,95.3 -127.72,71.5 -115.1,-28.1 -230.67,-54.4 -345.85,-82.2 -115.17,-27.8 -229.84,-57.8 -345.26,-84.5 -110.43,-25.6 -221.73,-47.3 -332.31,-72.3 -100.56,-22.7 -201.65,-44 -300.63,-72.5 -67.38,-19.4 -136.74,-25.8 -204.6,-42 -127.69,-30.6 -259.6,-43.5 -387.32,-73.9 -153.52,-36.6 -310.29,-52 -465.05,-79.7 -98.38,-17.6 -199.36,-29.3 -298.4,-44.6 -148.74,-22.9 -299,-21.7 -447.32,-44 -58.63,-8.8 -118.49,-10.4 -177.89,-12.7 -39.69,-1.6 -60.15,-19.5 -70.43,-57.9 -37.96,-142 -70.49,-285.2 -99.65,-429.3 -24.03,-118.8 -57.08,-235.9 -78.2,-355.1 -22.07,-124.6 -52.27,-247.4 -75.62,-371.7 -23.33,-124.2 -48.4,-248.1 -72.93,-372.1 -27.53,-139.2 -54.53,-278.5 -83.21,-417.4 -24.51,-118.7 -51.54,-236.9 -76.57,-355.499 -15.98,-75.602 -28.56,-152.102 -45.9,-227.399 -21.39,-92.902 -42.7,-186.101 -70.59,-277.203 -20.28,-66.199 -84.59,-98.5 -139.56,-80 -56.63,19 -88.9,90.801 -61.09,155.602 91.02,212.402 128.98,439.199 187.59,660.499 54.2,204.7 90.72,413.1 141.74,618.3 31.07,125 48.58,253.3 74.05,379.8 24.45,121.3 52.75,241.9 76.72,363.4 26.98,136.6 51.27,273.8 76.24,410.9 16.64,91.3 31.61,183 48.88,274.2 12.12,64.1 5.9,74.7 -59.12,71.6 -83.02,-4 -165.56,1.7 -248.14,7.2 -62.04,4.1 -99.29,36.2 -102.31,84.8 -2.98,47.7 40.66,95.7 96.49,104.2 17.76,2.7 36.15,3 54.15,2.2 248.4,-11.3 495.98,-6.2 744.23,14.3 159.72,13.1 319.76,25.6 478.56,44.9 107.1,13.1 215.41,22.9 321.5,47.4 82.72,19.1 167.71,28.2 251.44,43.1 83.75,15 167.48,30.3 250.65,48.2 63.03,13.5 126.77,22.7 189.83,37 170.81,38.8 344.26,66 514.98,105.2 188.17,43.2 374.07,96.2 561.69,141.9 110.13,26.9 221.93,46.8 332.49,72 107.98,24.7 215.13,52.9 322.98,78.1 112.84,26.3 226.14,50.7 339.11,76.4 105.51,24.1 210.83,49 316.28,73.3 117.94,27.3 235.9,54.4 353.91,81.4 117.99,26.9 236.01,53.7 354.07,80.3 108.04,24.4 216.11,48.7 324.2,72.9 98.03,21.9 195.96,44.3 294.22,65 30.37,6.5 34.62,26.6 34.64,51.5 0.04,72.5 -1.84,144.9 -11.22,216.9 -5.68,43.6 -12.51,87.4 -13.06,131.2 -4.6,364.9 -37.98,728.7 -42.08,1093.7 -2.15,191.2 -25.39,381.7 -46.79,571.9 -12.41,110.3 -20.54,221 -41.86,330.4 -16.4,84.1 -29.57,98.6 -111.94,83.1 -101.13,-19.1 -200.6,-44.5 -299.94,-72.2 -81.14,-22.6 -165.76,-42.6 -251.23,-42.8 -114.76,-0.3 -224.96,-31.5 -338.09,-42.9 -123.14,-12.3 -245.39,-34.2 -367.63,-54.4 -71.26,-11.8 -141.97,-26 -213.68,-36.1 -189.01,-26.8 -377.31,-58.7 -565.53,-90.8 -152.56,-25.9 -303.78,-61.5 -457.11,-80.9 -151.28,-19.1 -298.97,-56.4 -450.28,-75.5 -132.7,-16.8 -262.5,-55.4 -394.8,-76.8 -124.97,-20.3 -246.1,-57 -371.37,-76.3 -117.03,-17.9 -232.18,-48.3 -348.02,-73.8 -166.14,-36.6 -332.48,-72.4 -498.1,-111.2 -165.65,-38.9 -334.27,-64.6 -497.78,-112.8 -35.45,-10.4 -71.78,-12.2 -107.51,-4.6 -35.75,7.6 -59.61,31 -66.98,67.4 -6.91,34.1 9.94,58.6 34.52,81.1 29.96,27.6 71.83,24.6 117.36,46.5"
         style="fill:#000000;fill-opacity:1;fill-rule:nonzero;stroke:none"
         id="path12" />
      <path
         d="m 11743,1855.3 c -44,-69.9 -111.8,-80 -173.3,-91.5 -116.6,-21.8 -231.9,-49.5 -348,-73.4 -118.6,-24.3 -236.5,-52.2 -354.7,-78.6 -113.1,-25.3 -226.4,-49.6 -339.2,-76.3 -107.8,-25.5 -215.1,-53.1 -322.5,-80.3 -54.9,-13.9 -111.5,-20.5 -165.4,-39.7 -18.4,-6.5 -41.33,-4.1 -61.44,-0.9 -43.64,6.8 -74.71,42.7 -77.21,84.7 -2.58,43 22.6,82.1 65.58,93.9 39.77,10.9 80.67,18.9 121.57,24.9 196.7,28.8 387.4,85.1 581.5,126.1 191.6,40.5 380.7,91 571.2,135.6 95.2,22.2 187.8,54.9 282.4,79.6 52.6,13.7 106.8,17.1 161.4,6.8 37.7,-7.1 47.3,1.7 40.7,39.2 -8.5,48.2 -21.5,95.4 -30.6,143.7 -21.4,114 -51.8,226.2 -76.3,339.6 -21.4,98.3 -43.2,196.4 -74.3,292.1 -18.3,56.4 -40.8,111.6 -55.4,168.9 -10.2,40.1 -34.1,47.4 -68.4,44.9 -54.1,-3.9 -108.3,-7.2 -162.4,-11.7 -30.9,-2.6 -61.7,-10.6 -92.5,-10.4 -199.5,1.6 -396.3,-33.9 -595.1,-43.7 -118.2,-5.8 -235.2,-33.5 -353.3,-44.4 -113.3,-10.5 -223.89,-37.7 -337.58,-46 -89.87,-6.5 -179.32,-22.2 -268.2,-38.1 -116.88,-20.9 -234.95,-34.7 -351.39,-56.6 -93.92,-17.7 -189.24,-25.2 -282.63,-46.4 -80.42,-18.3 -162.33,-33.2 -244.37,-40.2 -95.61,-8.1 -188.35,-31.4 -282.94,-44.5 -117.32,-16.2 -234.61,-35.2 -351.3,-55.6 -101.77,-17.8 -205.08,-24.1 -306.01,-47.4 -77.9,-18 -158.57,-22 -237.62,-32.6 -102.23,-13.7 -204.36,-30.2 -306.81,-43.1 -114.94,-14.5 -230.23,-30.7 -343.16,-59 -23.55,-5.8 -31.85,-14.2 -30.87,-42 6.52,-187 55.82,-366.3 91.76,-548.3 31,-156.9 72.08,-311.4 106.14,-467.6 32.94,-151.1 76.43,-299.9 109.41,-450.898 35.64,-163.2 91.1,-321.903 106.35,-490 5.78,-63.602 26.75,-125.903 42.34,-188.5 6.45,-25.903 8.61,-50.602 -0.42,-76.102 -13.13,-37 -36.84,-62.1992 -76.91,-68 -37.03,-5.3984 -65.13,11 -87.36,39.4023 -23.32,29.6997 -33.57,63.3987 -32.17,101.1997 2.74,73.898 -10.64,144.199 -49.32,208.3 -9.71,16.098 -12.36,33.801 -14.16,51.797 -18.07,182.699 -61.84,360.703 -99.77,539.699 -0.43,2.004 -3.57,3.504 -14.43,13.504 -14.73,-65.504 -28.97,-125.504 -41.69,-185.8 C 6871.38,608.5 6885,399.902 6855.06,195.5 c -3.36,-22.898 -2.67,-46.602 -14.6,-67.598 -20.7,-36.5036 -60.23,-56.5036 -97.46,-49.4997 -36.63,7 -67.62,39.8007 -74.14,79.9997 -2.05,12.7 -3.37,26.098 -1.5,38.7 16.31,109.699 7.17,221.101 23.33,331 16.15,109.8 23.95,220.898 42.41,330.199 18.03,106.801 24.22,215.599 53.9,320.599 13.16,46.6 30.46,87.9 73.72,113.3 26.5,15.6 28.95,38.8 27.43,66.7 -3.27,60.2 -26.69,115.6 -38.98,173.6 -32.07,151.2 -74.51,300.2 -108.94,451 -21.24,93 -36.68,187.2 -66.57,278.2 -19.26,58.5 -20.61,61.8 -80.76,49.3 -50.24,-10.5 -99,-28.1 -148.38,-42.7 -17.23,-5.1 -34.03,-13.1 -51.59,-15.3 -54.86,-7 -95.62,16.6 -111.9,62.3 -13.61,38.1 5.1,85.1 49.48,111 63.05,36.8 134.47,51.6 204.38,68.8 147.85,36.4 298.46,58.8 448.48,83.6 104.31,17.3 209.76,27.6 314.55,42 112.42,15.5 224.76,31.5 336.95,48.5 96.98,14.6 194.53,24.5 291.5,40.2 124.7,20.1 249.77,39 374.84,56.3 92.02,12.7 182.12,37.4 275.37,42.2 61.98,3.2 122.16,21.7 182.39,34 101.44,20.6 205.2,22.6 305.89,48.4 67.1,17.2 137.51,20 206.29,32.4 162.33,29.4 326.62,47.9 489.89,72.4 71.43,10.7 143.2,21.7 213.74,35.1 109.52,20.8 220.42,31.2 330.12,44 128,14.9 255.7,35.3 384.6,44.9 164.8,12.4 329.1,31.9 493.6,48.4 10.3,1 20.5,4 30.7,3.9 212.5,-1.6 422.5,32.9 634.5,40.8 178,6.6 355.7,24.1 532.4,49.3 43.7,6.2 87.7,11.2 131.2,3.2 58.9,-10.8 94.9,-47.9 97.1,-95.5 2.4,-50.1 -34.9,-92.6 -94.2,-107 -7.5,-1.9 -15.3,-3.2 -23,-3.3 -168.2,-1.8 -333.5,-41.4 -502.7,-34.3 -79.8,3.4 -160.4,-2.7 -239.6,-17.1 -52.5,-9.5 -60.6,-19.7 -52.4,-73.2 7.7,-50.9 23.1,-100.7 36,-150.3 50.2,-192.4 80.6,-388.8 121.5,-583.1 35.5,-169 75.1,-337.1 111.9,-505.9 24.3,-110.8 45,-222.5 70.5,-333 36,-155.7 74.3,-310.8 112.8,-465.898 30.3,-122.5 63.4,-244.403 93.3,-367.102 15.3,-62.5 -17.1,-124.098 -68.8,-138.801 -55.6,-15.699 -110.9,14.199 -134.7,76.403 -11.9,31.3 -20.1,64.3 -26.4,97.199 -37.6,194.902 -74.4,389.902 -118.2,583.499 -15.4,67.8 -22.3,137.4 -36.4,205.8 -32.2,156.6 -62.2,313.7 -99.8,469.1 -1.8,7.2 -6.4,13.6 -15.8,33.1"
         style="fill:#000000;fill-opacity:1;fill-rule:nonzero;stroke:none"
         id="path14" />
      <path
         d="m 490.586,12326.5 c -5.211,-77.8 -32.231,-151.2 -46.207,-227.4 -19.074,-104 -32.426,-209.1 -55.672,-312 -20.539,-91 -26.562,-183.9 -47.402,-274.7 -18.469,-80.4 -26.692,-163.5 -35.489,-245 -12.476,-115.6 -35.027,-229.7 -44.207,-345.9 -8.726,-110.6 -19.082,-221.5 -31.664,-331.7 -33.859,-296.4 -21.246,-594.5 -39.707,-891.3 -20.281,-326 7.289,-651.6 9.278,-977.5 0.66,-108.6 4.406,-217.3 4.847,-325.9 1.207,-295.2 32.168,-588.5 53.055,-882.6 11.359,-159.9 27.719,-319.3 44.437,-478.6 12.907,-122.9 24.942,-246.4 47.594,-368.6 17.367,-93.7 23.457,-189.4 39.578,-283.8 26.071,-152.5 53.809,-304.6 84.043,-456.4 21.164,-106.2 44.278,-211.8 68.828,-317.3 30.411,-130.7 65.934,-260 105.696,-387.7 60.488,-194.3 127.019,-386.8 207.625,-574.1 127.07,-295.3 283.671,-573.6 474.751,-832.2 24.51,-33.2 53.76,-62.8 80.23,-94.6 14.84,-17.8 29.93,-35.6 36.7,-58.8 18.94,-64.7 -21.31,-114 -88.42,-109.7 -39.44,2.5 -66.66,25.7 -93.5,50.1 -65.62,59.8 -113.7,133.9 -163.99,205.7 -170.955,244.2 -311.224,505 -425.47,780.4 -94.961,229 -174.411,463.3 -242.227,701.2 -54.371,190.7 -100.574,383.8 -137.41,579.1 -33.445,177.4 -61.68,355.6 -93.438,533.2 -33.715,188.5 -55.375,378.3 -76.886,567.8 -16.579,146 -29.766,293.1 -44.4809,439.5 -20.7109,206 -22.1953,413.1 -46.2187,618.5 -9.336,79.9 -11.1914,160.1 -11.3516,240.3 C 22.6953,8675.3 0.625,9083.6 0.00390625,9492.5 -0.199219,9627.2 5.96094,9761.3 11.2109,9895.7 c 4.4375,113.8 8.1641,227.5 10.875,341.3 5.7969,243.1 29.2266,484.7 54.4532,726.4 12.5976,120.8 29.4959,241.2 44.2149,361.5 13.742,112.3 22.793,225.8 47.16,337.3 20.332,93 26.578,189.1 42.316,283.2 20.411,122.1 43.125,243.8 67.047,365.3 4.887,24.8 17.582,48.8 30.086,71.2 25.742,46.2 72.203,66.5 117.231,53.9 45.715,-12.7 68.679,-50.7 65.992,-109.3"
         style="fill:#000000;fill-opacity:1;fill-rule:nonzero;stroke:none"
         id="path16" />
      <path
         d="m 13434.4,7778.3 c 4.1,-266.6 5.2,-533.4 -9.5,-799.4 -11.1,-201.1 -21.1,-402.6 -39.8,-603.6 -16.8,-180.1 -37.4,-360 -46.3,-541.1 -5.3,-105.4 -24.1,-210.2 -38.7,-315.1 -17.1,-122.7 -34.3,-245.5 -55,-367.7 -25.1,-147.5 -53.4,-294.5 -81.3,-441.5 -23.6,-124.2 -46.4,-248.6 -73.9,-371.9 -21.3,-95.6 -50.2,-189.4 -74,-284.4 -43.1,-172.5 -104.4,-339.9 -143.1,-513.7 -8.9,-40.1 -26.3,-77.5 -31.4,-119.5 -8.6,-70.6 -57.7,-112.7 -111.2,-103.8 -55.1,9.2 -99.9,72.1 -91,134.9 5.8,40.7 17.5,80.9 30,120.3 66.2,208.7 139.4,415.5 198.5,626.2 40.3,143.6 77.5,288.6 109.6,434.8 27.6,126 54.9,252.2 78.1,378.8 27.5,149.6 52.3,300 75.7,450.4 31.3,201.8 41.4,406.2 79.7,606.9 2.9,15.2 6.2,30.8 6.1,46.1 -0.8,189.2 29.2,376.3 38,565 15.4,330.8 31.8,661.3 31.3,992.5 -0.6,406.2 -1.9,812.1 -25.4,1218 -12.9,222 -28.2,444 -43.7,665.8 -11.8,169.9 -28.6,339.9 -47.8,509.5 -14.5,128.3 -30,256.6 -42.8,385.2 -10.5,105.3 -26.3,210.1 -41.4,314.8 -16.5,115 -30.7,230.5 -53.4,344.3 -27.2,136.6 -48.7,274.2 -80.7,410 -25.5,107.8 -44.7,217.2 -71.2,324.8 -26.5,107.6 -47.2,216.6 -85.7,320.9 -9.8,26.5 -16.2,54.8 -20.3,82.8 -5.6,38.5 4.7,72.5 41.6,92.3 32.1,17.2 79.3,8.2 106.6,-21.8 22.8,-24.9 38.2,-54.1 47.5,-87.6 37.9,-136.7 66.1,-275.6 97,-413.9 29.8,-133.6 55.7,-267.9 77.4,-402.6 15.1,-94.2 34.3,-187.9 43.8,-283.3 10.5,-105.2 31.1,-209.4 47,-314 4.7,-30.7 9.4,-61.3 12.8,-92.1 27.8,-251.8 56.5,-503.4 82.4,-755.3 14.5,-141.5 26.9,-283.5 34.7,-425.1 12.3,-224.7 27.9,-449.5 45.9,-673.3 29.3,-364.7 18.4,-729.1 23.9,-1093.6"
         style="fill:#000000;fill-opacity:1;fill-rule:nonzero;stroke:none"
         id="path18" />
      <path
         d="m 578.012,12591.9 c -37.735,-1.6 -66.899,15.6 -81.653,48.3 -17.898,39.8 -15.543,79.8 13.168,116.8 34.286,44.2 86.121,58.2 133.879,73.1 194.348,60.4 382.774,137 574.294,205.1 210.99,74.9 420.94,153.4 628.27,237.9 348.14,141.8 701.3,271.2 1046.03,421.6 188.78,82.3 379.05,161.2 564.66,250.7 30.03,14.5 62.73,24.7 97.41,21.1 39.24,-4.1 67.46,-23.7 83.41,-60.4 15.22,-35.1 4.44,-65.3 -15.69,-94.6 -25.23,-36.7 -66.26,-50.1 -103.59,-65.1 -399.1,-160 -797.02,-323 -1198.85,-476.3 -247.81,-94.5 -492.78,-196.4 -739.78,-293.1 -251.75,-98.6 -504.5,-194.6 -756.648,-292.1 -64.824,-25 -129.332,-51 -193.418,-77.8 -16.856,-7.1 -32.996,-14.6 -51.492,-15.2"
         style="fill:#000000;fill-opacity:1;fill-rule:nonzero;stroke:none"
         id="path20" />
      <path
         d="m 8318.74,8311.6 c -30.93,-0.2 -51.19,2.5 -70.61,10.9 -45.71,19.8 -69.35,54.6 -64.08,95.2 5.24,40.6 35.85,65.2 87.92,71.8 143.28,18.3 283.35,52.6 424.48,82.2 151.32,31.8 300.54,71.7 450.58,108.1 184.99,44.8 370.29,88.8 553.54,141.2 173.08,49.4 348.33,91.1 522.63,136.4 144.4,37.5 288.7,75.6 433.2,112.8 22.4,5.8 45.6,9.8 68.7,11.3 54.2,3.5 86.2,-14.3 100.7,-53.5 15.9,-42.6 -0.4,-96.6 -41,-123.2 -32.5,-21.3 -69.4,-32.9 -108.5,-38.8 -135,-20.3 -267.3,-54.1 -400.7,-82.4 -113.4,-24 -224.4,-57.3 -338.58,-78.1 -108.75,-19.9 -215.53,-50.5 -323.16,-76.5 -102.6,-24.8 -205.2,-49.5 -307.75,-74.5 -107.49,-26.2 -214.99,-52.4 -322.36,-79 -144.85,-36 -289.58,-72.5 -434.37,-108.7 -62.45,-15.7 -124.81,-31.7 -187.34,-47 -17.46,-4.3 -35.35,-6.8 -43.3,-8.2"
         style="fill:#000000;fill-opacity:1;fill-rule:nonzero;stroke:none"
         id="path22" />
      <path
         d="m 8576.67,9154.8 c -52.82,-1.2 -97.35,31.2 -105.32,71.6 -7.87,40 13.49,80.5 59.07,97.3 62.71,23.2 126.63,44 191.29,60.9 201.62,52.9 402.75,108.4 606.15,153.4 188.51,41.8 376.5,86.2 562.67,136.2 218.47,58.6 440.37,104.4 656.17,173.6 70.9,22.7 143.3,41.4 214.8,62.9 26.6,8.1 56.2,8 84.5,8.9 40.2,1.3 69.7,-17.2 84.7,-55.1 14.1,-35.7 1.7,-75.6 -33.3,-102.9 -44,-34.3 -98.5,-43.5 -150.6,-56.6 -114.6,-28.9 -229.9,-55.5 -345,-82.5 -110.2,-25.8 -220.7,-50.7 -331,-76.4 -115.27,-26.8 -230.43,-54.3 -345.68,-81.4 -100.27,-23.6 -200.68,-46.5 -300.8,-70.7 -97.58,-23.6 -195.39,-46.5 -292.15,-73.1 -131.39,-36.2 -263.72,-69.3 -392.63,-114.2 -43.74,-15.2 -87.91,-29.2 -131.99,-43.5 -12.2,-3.9 -24.75,-6.8 -30.88,-8.4"
         style="fill:#000000;fill-opacity:1;fill-rule:nonzero;stroke:none"
         id="path24" />
      <path
         d="M 3408.78,0 C 3329.34,7.40234 3259.86,36.6992 3188.42,57.6992 3052.76,97.5 2916.59,135.301 2780.38,173.102 2621.43,217.301 2458.24,242 2299.14,284.699 c -49.85,13.403 -101.71,17.199 -152.44,25.903 -116.51,19.8 -231.34,55.101 -351.55,48.398 -37.25,-2.102 -71.67,5.199 -103.34,25.602 -43.92,28.199 -61.02,70.097 -44.8,111.699 15.45,39.601 60.74,65.699 107.08,59.101 35.69,-5.203 71.08,-12.601 106.33,-20.3 170.97,-37.2 340.87,-80.403 513.09,-110.301 124.46,-21.598 247.23,-50.403 370.24,-77.102 150.64,-32.699 302.09,-63.898 450.18,-108.398 56.58,-16.899 114.53,-29.903 172.48,-41.602 31.28,-6.301 59.04,-19.496 85.56,-34.898 42.12,-24.5 58.32,-66.1994 44.74,-104.6994 C 3484.41,23.2031 3446.93,-0.398438 3408.78,0"
         style="fill:#000000;fill-opacity:1;fill-rule:nonzero;stroke:none"
         id="path26" />
      <path
         d="m 2142.3,1935.3 c 65.81,-12.9 136.54,-26.3 207.02,-40.9 128.57,-26.6 256.71,-55.4 385.54,-80.6 154.08,-30.2 307.88,-63.6 463.31,-84.4 145.66,-19.5 286.77,-63.7 433.82,-73.3 42.89,-2.8 79.88,-20.3 110.42,-50.1 32.3,-31.4 41.21,-71.8 25.32,-105.5 -17.07,-36 -60.91,-60.3 -104.18,-48.8 -99.43,26.3 -201.4,41.1 -300.17,70.9 -66.29,20 -135.43,30.8 -203.57,44.4 -131.31,26.2 -262.72,51.9 -394.27,76.9 -144.05,27.4 -285.67,67.1 -432.34,81.6 -71.7,7.1 -141.54,27.6 -214.66,28.2 -56.45,0.4 -93.04,35.1 -96.24,81 -3.11,44.4 40.36,91.5 91.73,99 7.63,1.1 15.45,0.9 28.27,1.6"
         style="fill:#000000;fill-opacity:1;fill-rule:nonzero;stroke:none"
         id="path28" />
      <path
         d="m 10827,5845.9 c 1.2,62.1 34.1,93.5 85.8,96.4 59.2,3.3 109.4,-26.9 162.2,-45.7 192,-68.4 356,-186.5 516.9,-306.4 167.5,-124.8 330,-256.8 471.8,-411.9 19.4,-21.3 37.8,-41.7 48.5,-68.8 15.2,-38.8 4.4,-72.2 -23.8,-98.7 -28.8,-27.1 -63.6,-32.6 -100.3,-14.1 -37.7,19.1 -66.4,49 -93.6,80 -187.1,213.4 -407.6,386.3 -647.7,535.4 -85.6,53.1 -175.6,96 -273.8,121.5 -32.1,8.3 -63.4,22.8 -92.2,39.4 -32.4,18.8 -55.4,46.8 -53.8,72.9"
         style="fill:#000000;fill-opacity:1;fill-rule:nonzero;stroke:none"
         id="path30" />
      <path
         d="m 11812.5,692.199 c 62,-1.097 106.7,-35.597 111.5,-86.097 4.8,-50.102 -22.7,-85.801 -86.3,-101.102 -85.1,-20.602 -171.5,-36.297 -257.2,-55 -125.8,-27.398 -251.6,-55.199 -377.3,-83.699 -98,-22.199 -195.1,-48.399 -293.6,-68 -106.5,-21.102 -209.9,-52.801 -314.2,-81.301 -36.5,-9.898 -70.1,-15.398 -104.2,6.102 -31.3,19.8 -49,46.699 -44.7,83.796 4.1,35.801 22.5,63.903 58.4,75.102 37,11.5 74.4,23 112.5,29.203 137.5,22.098 271.7,59.5 407.8,87.297 149.2,30.5 294.3,75.801 443.3,106.699 93.1,19.301 184,49.301 275.6,75.602 22.6,6.601 44.9,11.801 68.4,11.398"
         style="fill:#000000;fill-opacity:1;fill-rule:nonzero;stroke:none"
         id="path32" />
      <path
         d="m 4054.04,1437.9 c -2.96,-66.7 -24.34,-133.6 -31.53,-203.2 -10.31,-99.7 -31.09,-198.4 -47.38,-297.598 -14.62,-88.899 -25.21,-178.399 -41.01,-267.301 -26.14,-147 -45.49,-295.199 -67.84,-442.903 -4.36,-28.796 -16.46,-54.699 -34.79,-76.699 -31.16,-37.5 -79.47,-47.699 -118.5,-27.097 -40.09,21.097 -63.24,66.097 -49.67,111.296 48.15,160.504 76.85,325.403 106.92,489.5 29.66,161.903 66.93,322.802 76.84,488.202 5.08,84.8 22.54,168.6 26.95,253.9 3.36,65 42.89,102.5 95.04,100.1 51.78,-2.4 83.41,-43.1 84.95,-109.5 0.13,-5.2 0.02,-10.3 0.02,-18.7"
         style="fill:#000000;fill-opacity:1;fill-rule:nonzero;stroke:none"
         id="path34" />
      <path
         d="m 6100.15,1159.8 c 1.53,116 19.42,200.1 77.01,272.6 107.49,135.3 299.74,146.6 419.33,69.2 38.36,-24.8 64.42,-59.5 83.2,-99.8 22.03,-47.3 11.93,-92.7 -24.06,-118.1 -34.09,-24.2 -75.72,-23 -111.74,15.9 -36.34,39.1 -75.04,58.6 -128.31,56.3 -60.44,-2.5 -100.85,-37.2 -115.55,-87.8 -23.67,-81.6 -19.42,-164.8 41.55,-233.4 32.68,-36.899 71.83,-58.997 123.36,-35.2 11.59,5.4 24.48,8.3 37.06,11.1 49.5,11.1 82.54,-0.5 100.65,-34.6 17.06,-32.102 10.75,-76.199 -20.53,-106.801 -59.66,-58.297 -133.51,-75.996 -214.12,-63.297 -84.45,13.399 -145.13,64.399 -192.3,132.598 -51.4,74.3 -77.84,156.7 -75.55,221.3"
         style="fill:#000000;fill-opacity:1;fill-rule:nonzero;stroke:none"
         id="path36" />
      <path
         d="m 11783.2,11900.6 c -0.4,-30.8 -18.1,-66.5 -35.1,-100.4 -87.8,-175.3 -160,-357.2 -228.7,-540.4 -47.9,-128.1 -75.8,-262.2 -99.3,-396.9 -6.8,-38.7 -21.6,-68.3 -62.1,-80.1 -68.2,-19.9 -129.8,42.9 -113.5,121.7 17.2,83.2 36.9,166.3 62.2,247.3 77,245.9 169.5,486.2 265.2,725.4 12.6,31.4 26.5,62 46.5,88.7 26.1,34.8 67.1,46.8 103.2,34.7 34.6,-11.6 60.2,-49.4 61.6,-100"
         style="fill:#000000;fill-opacity:1;fill-rule:nonzero;stroke:none"
         id="path38" />
      <path
         d="m 2211.62,10982.8 c 1.15,-63.8 -42.36,-115.2 -95.56,-119 -46.88,-3.3 -95.06,34.2 -102.13,87.8 -27.08,205.6 -119.44,387.1 -206.17,570.8 -52.95,112.1 -115.08,219 -188.8,319 -16.63,22.6 -34.28,45.3 -41.16,73.8 -11.61,48.2 2.36,89.9 37.17,108.6 34.62,18.6 79.93,9.3 111.3,-26.8 21.88,-25.2 41.81,-52.7 58.72,-81.4 156.79,-266.9 297.01,-541.8 401.51,-833.7 12.1,-33.8 17.86,-69.9 25.12,-99.1"
         style="fill:#000000;fill-opacity:1;fill-rule:nonzero;stroke:none"
         id="path40" />
      <path
         d="m 1294.1,5222.2 c -1.99,29.2 16.42,58.2 30.95,88.2 114.97,238 244.02,466.7 430.01,658.4 41.72,43 87.37,80.1 138.66,111.1 30.21,18.2 62.75,23.5 96.48,24.1 33.87,0.7 61.03,-14 74.85,-45.5 14.94,-34 7.86,-66.3 -17.9,-92.9 -10.6,-11 -23.47,-20.6 -36.87,-27.9 -145.25,-79.6 -245.98,-202.7 -330.9,-340.4 -69.15,-112 -127.14,-229.8 -172.84,-353.7 -11.5,-31.2 -26.92,-62.1 -46.38,-88.8 -27,-37.1 -73.66,-48.1 -110.8,-32.6 -36.32,15.2 -56.48,49.3 -55.26,100"
         style="fill:#000000;fill-opacity:1;fill-rule:nonzero;stroke:none"
         id="path42" />
      <path
         d="m 7068.66,4882.8 c 2.31,-44.5 -3.27,-87.3 -31.96,-124.4 -24.25,-31.3 -54.91,-47.9 -94.38,-36.6 -40.02,11.4 -57.31,41.5 -57.76,81.9 -0.27,23.3 1.14,46.6 0.18,69.8 -2.05,49.8 -31.43,90.6 -75.14,106.3 -50.89,18.3 -112.21,5.3 -143.63,-27.5 -38.89,-40.6 -37.17,-88.8 -28.16,-138 3.56,-19.4 26.31,-23.3 39.38,-35.3 36.08,-33.2 45.5,-67.5 28.25,-103.1 -16.52,-34.2 -53.16,-50.8 -98.44,-44.6 -69.25,9.4 -137.69,71.5 -152.76,147.2 -29.98,150.6 12.58,285.6 153.35,364.9 106.05,59.7 216.14,45.4 317.5,-12.9 92.67,-53.3 149.77,-133.6 143.57,-247.7"
         style="fill:#000000;fill-opacity:1;fill-rule:nonzero;stroke:none"
         id="path44" />
      <path
         d="m 11863.9,6595.3 c 124.2,0 232.8,-0.3 341.4,0.1 34.7,0.2 66.3,-6.9 93.7,-29.9 35.6,-29.9 49.2,-66.6 36.7,-102.3 -13.7,-39.5 -60,-73.3 -103.6,-66 -218.4,36.6 -437.7,23.9 -657.1,15.1 -57,-2.3 -113.1,-4.6 -167.5,-25.6 -26,-10.1 -55.3,-14.4 -83.3,-15.8 -39.9,-2 -70.2,17.8 -85.3,55.1 -15.2,37.8 -4.4,71.5 25.2,98.3 27.6,24.9 61.2,33.8 97.8,41.3 171.4,35.4 344.7,27.9 502,29.7"
         style="fill:#000000;fill-opacity:1;fill-rule:nonzero;stroke:none"
         id="path46" />
      <path
         d="m 8094.8,3113.2 c 0.6,-39.8 -4.9,-82.5 -32.58,-120.1 -24.14,-32.9 -55.48,-45.6 -94.57,-36.9 -36.02,7.9 -56.24,36.4 -58.99,80.7 -0.8,12.8 0.98,25.8 1.17,38.7 0.19,12.9 1.22,26 -0.45,38.7 -7.11,54 -42.94,74.4 -124.9,72.3 -77.2,-1.9 -119.14,-28.5 -123.13,-78.8 -1.7,-21.3 1.3,-41.3 22.14,-54 8.78,-5.3 17.06,-11.7 24.92,-18.3 43.25,-36.6 54.44,-69.7 36.53,-106.7 -19.74,-40.8 -70.79,-63.9 -118.95,-50.5 -52.19,14.5 -90.64,47.3 -116.29,95.5 -74.02,138.9 -32.3,328.6 168.53,385.8 94.77,26.9 194.29,28.1 286.35,-22.8 86.14,-47.6 135.8,-116.7 130.22,-223.6"
         style="fill:#000000;fill-opacity:1;fill-rule:nonzero;stroke:none"
         id="path48" />
      <path
         d="m 8400.07,3429.1 c 138.16,15.1 306.44,-120.5 282.93,-296.1 -5.73,-42.8 -22.1,-79.7 -50.05,-111.1 -29.34,-33 -71.78,-41.1 -105.33,-23.5 -31.63,16.5 -46.75,50.3 -40.6,92.5 1.48,10.2 6,19.9 7.8,30 14.16,80.2 -32.82,130.4 -114.33,122.4 -55.2,-5.3 -82.53,-47.6 -61.76,-98.6 9.73,-23.8 27.1,-43.2 44.6,-62.7 45.2,-50.2 48.41,-93.2 12.83,-129.4 -34.34,-34.8 -99.33,-37.8 -141.84,-1 -58.22,50.4 -99.18,113.9 -106.83,191.9 -17.3,176.3 89.55,286.6 272.58,285.6"
         style="fill:#000000;fill-opacity:1;fill-rule:nonzero;stroke:none"
         id="path50" />
      <path
         d="m 5524.25,4863.7 c 44.94,-4.2 108.69,-7 167.76,-39.7 102.65,-56.7 134.39,-172 70.98,-270.2 -25.32,-39.2 -67.17,-57.3 -105.17,-45.5 -37.07,11.4 -52.92,39.6 -51.92,92.3 1.31,68.6 0.01,70.2 -62.31,78.1 -64.31,8.2 -100,-10.6 -109.68,-57.8 -7.87,-38.3 21.28,-92.1 57.55,-106.1 2.38,-0.9 5.14,-0.8 7.54,-1.6 65.2,-23.5 90.32,-58.1 75.97,-104.5 -14.58,-47.3 -79.73,-79.9 -133.36,-65.6 -17.31,4.7 -34.89,11 -50.09,20.3 -156.7,95.6 -182.35,291.3 -79.59,422.2 48.62,62 117.8,79.6 212.32,78.1"
         style="fill:#000000;fill-opacity:1;fill-rule:nonzero;stroke:none"
         id="path52" />
      <path
         d="m 7164.21,2941.6 c 0,15.4 0.23,30.9 -0.04,46.3 -0.55,31.3 -12.7,57 -44.23,65.1 -32.87,8.4 -66.21,10 -93.5,-18.5 -25.42,-26.6 -23.56,-55.7 -10.39,-85.8 5.06,-11.6 15.64,-20.7 21.26,-32.1 21.42,-43.6 12.27,-88.5 -23.15,-119.2 -30.49,-26.4 -79.11,-30.6 -115.63,-8.7 -27.28,16.4 -48.88,39.9 -59.84,69.3 -74.08,198.3 31.45,369.1 213.26,386.6 62.46,6 122.45,1.5 179.57,-31 121.39,-69 162.74,-241.6 82.13,-355.4 -8.77,-12.4 -19.95,-24.1 -32.44,-32.6 -50.72,-34.2 -113.92,-6.2 -122.46,54.5 -2.83,20.1 -0.44,41 -0.44,61.5 1.97,0 3.93,0 5.9,0"
         style="fill:#000000;fill-opacity:1;fill-rule:nonzero;stroke:none"
         id="path54" />
      <path
         d="m 10250.3,418.102 c -0.1,-30.5 -5.5,-53.102 -17.2,-73.602 -35.9,-62.699 -113.9,-64.898 -151.1,-3.398 -10.5,17.398 -19.8,37.796 -21.7,57.601 -12.9,133.899 -47.6,263.699 -71.3,395.598 -19.6,108.902 -46.57,216.599 -70.53,324.699 -2.22,10.1 -7.4,19.5 -9.26,29.6 -8.92,48.7 14.09,93.9 54.12,107.7 45.17,15.6 94.57,-5.4 114.97,-52.6 17.5,-40.3 28.1,-83.2 30.9,-127.5 2.6,-41.4 13.2,-81.298 20.7,-121.802 31.1,-167.296 77.4,-330.996 113.2,-497.199 3.3,-15.097 5.6,-30.398 7.2,-39.097"
         style="fill:#000000;fill-opacity:1;fill-rule:nonzero;stroke:none"
         id="path56" />
      <path
         d="m 6091.14,4979.6 c 141.54,-0.5 241.58,-67.6 279.95,-187.7 21.05,-65.8 -2.44,-146.2 -54.88,-189.4 -30.66,-25.3 -64.07,-33.5 -100.32,-14.7 -34,17.6 -49.98,56.8 -35.03,100.3 11.89,34.5 20.61,63.3 -14.9,88.6 -28.7,20.4 -98.35,26.8 -125.39,9.6 -25.25,-16 -34.16,-49.9 -18.62,-82.6 11.03,-23.2 27.17,-43.8 38.94,-66.7 17.18,-33.4 12.84,-65 -13.17,-92.6 -25.75,-27.3 -63.57,-34.5 -99.44,-16.4 -43.24,21.8 -69.35,59 -90.79,101.8 -91.19,182 39.3,352.9 218.17,349.8 5.16,-0.1 10.32,0 15.48,0"
         style="fill:#000000;fill-opacity:1;fill-rule:nonzero;stroke:none"
         id="path58" />
      <path
         d="m 10654.6,5690.8 c 36.2,1 65.6,-16.6 90.9,-38.5 144.8,-125.5 280,-260.3 391.4,-417.2 6,-8.4 11.2,-17.5 15.6,-26.8 21.8,-45.9 13.2,-90.6 -22.6,-118.8 -33.7,-26.7 -84.8,-24.7 -120,8.8 -22.2,21.1 -41.5,46 -59,71.4 -78.4,113.3 -170.3,214.2 -277.1,301.3 -19.8,16.2 -39.7,31.7 -63.7,43.2 -51.2,24.6 -68.7,61.7 -56.3,104.9 11.4,39.4 56.1,71.2 100.8,71.7"
         style="fill:#000000;fill-opacity:1;fill-rule:nonzero;stroke:none"
         id="path60" />
      <path
         d="m 11168.8,6134 c 107.7,-0.9 187,-42.1 268.9,-71.1 89.5,-31.7 178.2,-67.3 258.8,-119.5 30.4,-19.7 61.1,-39.2 83,-68.5 27.7,-37 26.7,-85.3 -0.2,-114.4 -26.4,-28.6 -63.5,-34.4 -106.1,-11.2 -58.8,31.9 -113.7,71.7 -174.3,99.5 -102.6,47.2 -206,94.3 -321.6,102.9 -22.5,1.7 -45.4,10.7 -66.2,20.3 -37.6,17.5 -57.2,51.8 -50.1,86.6 8,38.7 30.6,65.1 71.5,71.5 17.8,2.8 35.8,3.9 36.3,3.9"
         style="fill:#000000;fill-opacity:1;fill-rule:nonzero;stroke:none"
         id="path62" />
      <path
         d="m 7917.5,1342.7 c 22.69,-1 33.16,-0.5 43.27,-2.1 40.64,-6.8 73.93,-24.1 86.28,-66.9 10.42,-36.3 -9.81,-80 -50.8,-103.7 -31.12,-18.1 -64.01,-34 -101.36,-35.5 -102.9,-4.1 -206.47,1.4 -307.64,-26.4 -18.59,-5.1 -41.46,-0.7 -60.92,4.6 -49.92,13.6 -79.64,50.5 -78.74,92.9 0.86,40.9 25.01,68 76.65,84.4 22.11,6.9 44.46,15.4 67.25,17.7 112.75,11.7 227.08,7.5 326.01,35"
         style="fill:#000000;fill-opacity:1;fill-rule:nonzero;stroke:none"
         id="path64" />
      <path
         d="m 6703.91,18325.7 c 12.71,-210.7 -65.23,-394.7 -170.33,-569.8 -57.02,-95.1 -119.92,-186.7 -160.41,-290.9 -23.14,-59.5 -17.47,-83.2 37.33,-115.4 35.21,-20.6 71.36,-39.2 114.7,-43.6 56.36,-5.8 111.86,-19.9 167.77,-30.2 26.72,-4.9 47.63,-20.4 65.98,-38.5 57.83,-57.3 36.27,-142 -41.99,-164.8 -14.53,-4.2 -31.65,-7.3 -45.84,-3.8 -114.68,28.1 -234.92,36.4 -341.33,94.2 -18.16,9.9 -36.43,19.9 -53.13,32 -107.88,77.9 -140.51,198.3 -89.81,322.7 33.36,81.9 81.51,155 129.86,228.3 71.09,107.8 140.28,217 178.57,341.9 28.19,91.9 48.07,184.8 28.18,282 -9.87,48.2 -13.92,97.5 -11.61,146.6 2.6,55.6 35.29,92.9 81.49,97.7 53.33,5.6 94.13,-30.5 100.15,-94.8 6.02,-64.3 7.14,-129 10.42,-193.6"
         style="fill:#000000;fill-opacity:1;fill-rule:nonzero;stroke:none"
         id="path66" />
      <path
         d="m 6642.54,15908 c -211.22,6.8 -392.53,81.9 -561.21,192.6 -56.63,37.2 -103.49,85.8 -145.5,138.5 -22.41,28.1 -43.04,58 -47.57,95.9 -5.7,47.7 7.54,84.9 41.52,100 38.29,16.9 76.18,13 109.01,-14.3 13.73,-11.4 26.75,-25 36.27,-40 75.44,-118.8 187.86,-187.7 314.91,-238.8 146.19,-58.9 298.9,-68.8 449.22,-38.4 175.59,35.4 316.69,134 415.81,286.9 7.01,10.8 12.34,22.8 20.17,33 32.13,41.5 67.74,55.4 107.22,42.7 42.11,-13.5 62.51,-48.8 63.48,-104.4 0.88,-49.9 -21.24,-90.5 -51.1,-126.6 -62.89,-76 -134.12,-144.1 -219.08,-194.9 -165.86,-99.3 -344.46,-149.7 -533.15,-132.2"
         style="fill:#000000;fill-opacity:1;fill-rule:nonzero;stroke:none"
         id="path68" />
      <path
         d="m 8373.8,18747.6 c -3.16,-17.7 -3.71,-39.1 -11.01,-57.9 -14.25,-36.6 -42.98,-58.4 -82.6,-60.8 -36.03,-2.2 -66.39,12.2 -85.14,43.7 -15.83,26.7 -26.34,55.7 -34.17,86.1 -61.88,240.3 -283.06,344.2 -491.78,309.2 -177.33,-29.8 -311.21,-116 -393.82,-278.2 -11.53,-22.6 -28.13,-43.1 -51.9,-56.3 -50.3,-27.8 -108.86,-3.8 -121.17,52.3 -8.51,38.8 -3.28,77 15.79,112.8 95.23,178.7 239.74,293 438.56,337.2 65.5,14.6 130.07,29.9 198.5,29 308.66,-4.1 516.71,-187.3 609.59,-460.7 5.72,-16.8 5.9,-35.4 9.15,-56.4"
         style="fill:#000000;fill-opacity:1;fill-rule:nonzero;stroke:none"
         id="path70" />
      <path
         d="m 5556.71,19261.5 c 213.92,-15.7 394.21,-95.4 520.29,-276.7 27.99,-40.2 54.89,-81.2 75,-126.4 12.04,-27.1 16.65,-54.4 12.77,-83 -5.75,-42.4 -38.79,-78.9 -77.64,-87.7 -35.06,-7.9 -76.08,9.1 -98.75,46.6 -23.89,39.6 -43.84,81.6 -64.91,122.8 -76.07,149 -278.24,234.6 -457.44,203.3 -178.63,-31.2 -301.46,-124.5 -376.47,-286.3 -6.53,-14.1 -11.05,-29.6 -19.98,-41.9 -22.36,-30.9 -51.24,-51.9 -92.12,-45.1 -35.19,6 -66.84,41.7 -73.42,81.8 -4.29,26.1 0.16,51.3 10.27,75.8 87.15,211.6 242.69,341.7 465.92,390.6 57.98,12.7 115.56,29.5 176.48,26.2"
         style="fill:#000000;fill-opacity:1;fill-rule:nonzero;stroke:none"
         id="path72" />
      <path
         d="m 5821.25,18232.7 c -1.2,-158.8 -137.05,-294.8 -291.8,-292.1 -152.95,2.6 -279.78,136.6 -279.4,295.2 0.39,157.7 129.12,285.2 287.44,284.6 158.1,-0.6 284.94,-129.2 283.76,-287.7"
         style="fill:#000000;fill-opacity:1;fill-rule:nonzero;stroke:none"
         id="path74" />
      <path
         d="m 8052.06,18284.3 c -1.08,-157.9 -129.83,-283.5 -288.44,-281.4 -155.98,2.1 -279.15,126.1 -279.96,281.7 -0.83,158.8 125.24,285.5 284.16,285.5 158.42,0.1 285.32,-127.5 284.24,-285.8"
         style="fill:#000000;fill-opacity:1;fill-rule:nonzero;stroke:none"
         id="path76" />
      <path
         d="m 3869.68,17600.1 c 0.27,43.1 -1.01,112.6 33.64,177.1 19.2,35.7 45.09,62.4 82.45,77.6 38.02,15.5 71.26,5.5 99.14,-22.2 28.55,-28.5 39.94,-65.2 16.44,-98.6 -85.53,-121.3 -36.63,-243.1 -1.73,-362.6 21.41,-73.3 54.14,-142.4 110.61,-200.4 53.41,-54.9 20.21,-131.7 -55.57,-143 -40.22,-6.1 -76.03,2.6 -107.65,30.6 -31.67,28 -55.76,61.5 -72.8,99 -60.02,132.1 -104.81,268.5 -104.53,442.5"
         style="fill:#000000;fill-opacity:1;fill-rule:nonzero;stroke:none"
         id="path78" />
      <path
         d="m 9180.83,17571.1 c 7.99,-154.4 -44.57,-283.9 -128.75,-402.7 -25.66,-36.2 -57.5,-66 -98.74,-85.2 -37.17,-17.2 -71.67,-12.6 -100.96,13.8 -30.61,27.5 -30.72,63.1 -17.69,100.1 9.77,27.7 29.21,48.6 47.38,70.4 59.67,71.4 90.65,155.9 108.55,245.2 9.69,48.2 5.3,97.6 -8.94,145.8 -8.73,29.6 -15.95,60.1 -19.6,90.7 -8.02,67.2 18.05,108.6 71.12,118.1 50.66,9.1 95.16,-22.1 115.82,-81 25.1,-71.5 38.35,-144.8 31.81,-215.2"
         style="fill:#000000;fill-opacity:1;fill-rule:nonzero;stroke:none"
         id="path80" />
    </g>
  </g>
</svg>
