<svg version="1.1" id="Layer_1" xmlns="http://www.w3.org/2000/svg" xmlns:xlink="http://www.w3.org/1999/xlink" x="0px" y="0px"
	 width="100%" viewBox="0 0 549 252" enable-background="new 0 0 549 252" xml:space="preserve">
<path fill="#FEFFFF" opacity="1.000000" stroke="none" 
	d="
M330.000000,253.000000 
	C220.034164,253.000000 110.568336,253.000000 1.051251,253.000000 
	C1.051251,169.060410 1.051251,85.120766 1.051251,1.090567 
	C183.882492,1.090567 366.765045,1.090567 549.823792,1.090567 
	C549.823792,84.999710 549.823792,168.999817 549.823792,253.000000 
	C476.787476,253.000000 403.643738,253.000000 330.000000,253.000000 
M383.695007,171.161072 
	C383.851044,169.811478 384.007050,168.461884 384.163086,167.112289 
	C384.696930,166.815353 385.230774,166.518402 385.764618,166.221466 
	C385.934296,166.875732 385.896667,167.768799 386.317322,168.133987 
	C387.161377,168.866714 388.255676,169.311111 389.246704,169.874512 
	C389.371948,168.541931 390.095764,166.536484 389.503937,166.009979 
	C388.053131,164.719345 385.848236,163.215088 384.223816,163.482162 
	C382.627655,163.744598 380.267792,166.006683 380.160675,167.526413 
	C379.707550,173.955399 379.688721,180.456223 380.180267,186.879578 
	C380.293427,188.358368 382.849213,190.286652 384.644348,190.850067 
	C387.288635,191.679993 389.795837,190.357300 389.977814,187.262527 
	C390.255219,182.544739 390.050446,177.798599 390.050446,172.907532 
	C387.948151,172.907532 386.465515,172.907532 384.691284,172.464798 
	C384.379547,172.309235 384.067841,172.153671 383.695007,171.161072 
M333.934570,71.421394 
	C331.877716,72.294998 329.820831,73.168610 326.606354,74.533882 
	C326.606354,81.782562 326.606354,90.156807 326.606354,98.531059 
	C324.586365,97.615463 323.721313,96.492622 322.953949,95.306564 
	C318.795441,88.879044 314.641876,82.448166 310.526428,75.993042 
	C308.428406,72.702240 305.424316,72.166527 301.968719,73.107750 
	C299.803497,73.697510 297.692139,74.485001 294.941254,75.385117 
	C295.542725,95.841820 296.171600,117.229652 296.809265,138.916931 
	C302.309784,138.316666 307.022003,137.802429 311.583740,137.304611 
	C311.583740,127.573906 311.583740,118.081230 311.583740,107.600349 
	C319.486389,118.897461 326.885315,129.474472 334.469910,140.316940 
	C335.356354,138.933197 336.007843,137.916229 336.641663,136.926849 
	C337.843903,137.584000 338.768250,138.089264 340.035767,138.782089 
	C340.861267,116.861404 341.667694,95.446732 342.447266,74.745300 
	C339.385895,73.314163 336.973083,72.186211 333.934570,71.421394 
M366.920929,124.510399 
	C366.920929,119.205170 366.920929,113.899948 366.920929,107.896606 
	C374.620026,118.923439 381.996124,129.487625 389.648804,140.447968 
	C390.539307,138.890808 391.121277,137.873184 391.678040,136.899658 
	C392.935638,137.555405 393.834045,138.023865 395.150146,138.710114 
	C395.982300,116.778488 396.793701,95.393608 397.582520,74.603600 
	C394.479553,73.349396 392.000824,72.347511 390.330933,71.672554 
	C387.360229,72.527878 384.911224,73.232986 381.521851,74.208847 
	C381.521851,81.993004 381.521851,90.302452 381.521851,98.611900 
	C375.458130,91.245117 370.566803,83.755638 365.788330,76.194847 
	C363.711761,72.909218 360.812653,72.088799 357.309357,73.018600 
	C355.013916,73.627823 352.802887,74.555161 350.044678,75.517792 
	C350.653656,95.914207 351.287872,117.154900 351.933838,138.789551 
	C356.839478,138.426239 361.276184,138.220993 365.661224,137.631531 
	C366.274292,137.549118 366.988739,135.596909 367.041962,134.480927 
	C367.184418,131.495697 366.992889,128.494507 366.920929,124.510399 
M248.796829,99.225517 
	C245.557190,112.311310 242.317551,125.397102 239.292633,137.615616 
	C242.515945,138.505447 245.047134,138.861679 247.266052,139.891037 
	C251.355927,141.788315 254.281326,140.700363 255.452820,136.396469 
	C255.976700,134.471893 256.258270,132.455368 257.010590,130.629211 
	C257.431061,129.608505 258.479858,128.329208 259.437012,128.141174 
	C262.690094,127.502098 266.034424,127.005669 269.331055,127.074043 
	C270.588715,127.100128 272.452118,128.552368 272.929718,129.784729 
	C274.337891,133.418396 275.191010,137.267166 276.063171,140.334763 
	C281.416992,139.569839 286.193268,138.887436 291.426727,138.139694 
	C285.591888,116.467155 279.910706,95.299622 274.140228,74.156464 
	C273.892578,73.249077 272.793121,71.860558 272.136322,71.885895 
	C262.761322,72.247452 253.394272,72.814232 244.504684,73.305077 
	C245.070099,78.762024 245.558060,83.471420 246.074158,88.452255 
	C247.849503,88.452255 249.265503,88.452255 251.253036,88.452255 
	C250.425430,92.045525 249.691757,95.231010 248.796829,99.225517 
M202.573303,72.993172 
	C197.044357,73.489258 191.515411,73.985336 186.317017,74.451759 
	C186.614243,80.091660 186.861740,84.788078 187.118164,89.653717 
	C188.365768,89.832802 189.612869,90.011826 192.061676,90.363342 
	C192.061676,103.420876 191.640152,116.393410 192.331207,129.306412 
	C192.526016,132.946960 195.510437,136.841156 198.163818,139.755524 
	C199.277115,140.978317 203.021179,140.498260 205.268433,139.810074 
	C207.730911,139.055954 209.968140,137.331482 212.092514,135.746979 
	C223.676605,127.106750 234.478836,117.695206 239.084991,103.330399 
	C243.831619,88.527565 237.510193,77.225258 222.402420,74.127159 
	C216.297043,72.875153 209.846817,73.304733 202.573303,72.993172 
M410.728516,93.806099 
	C412.823700,97.006546 414.698090,100.382393 417.067474,103.365005 
	C420.354706,107.503059 421.507355,112.002502 421.300262,117.233719 
	C421.006653,124.650757 421.225739,132.088089 421.225739,139.261017 
	C427.095520,138.705383 431.833191,138.256912 436.715240,137.794769 
	C436.715240,130.440262 436.944244,123.303162 436.638458,116.189041 
	C436.417694,111.052643 437.353394,106.458069 439.691376,101.833450 
	C444.312866,92.691940 448.463898,83.312584 452.911835,73.812874 
	C451.209381,73.159973 449.988434,72.701073 448.774780,72.223694 
	C447.526062,71.732536 445.845917,71.574051 445.115845,70.661156 
	C441.993652,66.756981 439.425293,66.859512 437.292725,71.301826 
	C434.147095,77.854401 431.042267,84.426529 427.635925,91.587715 
	C423.652161,85.625526 419.749908,80.428650 416.572113,74.821220 
	C414.131012,70.513664 410.526031,71.507347 409.199615,73.991562 
	C407.269257,77.606888 404.529205,78.162674 400.752655,78.441521 
	C404.190033,83.759491 407.247131,88.489174 410.728516,93.806099 
M153.388672,137.860519 
	C156.809143,135.112595 160.229614,132.364655 164.102142,129.253555 
	C152.690079,120.282913 141.932220,111.826523 130.996841,103.230591 
	C129.247696,105.474464 127.969818,107.113762 126.505608,108.992096 
	C135.185425,115.877563 143.451050,122.434448 152.046082,129.252655 
	C143.206589,136.271027 134.931305,142.841446 126.453217,149.572876 
	C128.170364,151.668457 129.580597,153.389481 131.103790,155.248367 
	C138.684433,149.337036 145.758408,143.820816 153.388672,137.860519 
M58.456604,128.206131 
	C59.050755,129.442764 59.330460,131.060394 60.290966,131.853149 
	C65.811348,136.409424 71.482918,140.783203 77.123405,145.193054 
	C81.379395,148.520477 85.665619,151.809235 90.087158,155.230286 
	C91.763580,152.982162 93.025040,151.290497 94.401276,149.444931 
	C85.892738,142.683823 77.628098,136.116516 68.964722,129.232361 
	C77.815056,122.203453 86.086769,115.634079 94.547440,108.914642 
	C92.787270,106.803810 91.444191,105.193161 89.880447,103.317894 
	C79.351517,111.663490 69.196037,119.713081 58.456604,128.206131 
M111.041962,141.654129 
	C114.671043,128.241486 118.300125,114.828850 122.020012,101.080620 
	C119.516800,100.347481 117.400772,99.727745 114.954300,99.011223 
	C109.543648,118.806564 104.277435,138.073456 98.941559,157.595200 
	C101.749130,158.229095 103.922806,158.719879 106.282921,159.252747 
	C107.935677,153.291809 109.436493,147.878876 111.041962,141.654129 
M360.720398,164.447968 
	C360.643555,172.259720 360.469116,180.073029 360.594940,187.881531 
	C360.613861,189.054260 362.037415,190.204376 362.811188,191.364960 
	C363.253693,191.103271 363.696198,190.841583 364.138702,190.579895 
	C364.326019,187.488327 364.513367,184.396744 364.700714,181.305161 
	C365.012054,181.307571 365.323395,181.309982 365.634735,181.312393 
	C366.260803,184.484955 366.886871,187.657516 367.554443,191.040344 
	C369.481049,190.948639 371.065186,190.873230 373.147766,190.774094 
	C373.147766,182.498123 373.204102,174.540955 373.080261,166.586578 
	C373.063782,165.527573 372.133179,164.482803 371.625916,163.431458 
	C370.894440,164.477005 369.647369,165.468933 369.531982,166.578568 
	C369.232666,169.455948 369.431519,172.385147 369.431519,175.293655 
	C367.913971,172.820038 367.190216,170.385056 367.186005,167.948807 
	C367.178223,163.435226 365.114838,162.428757 360.720398,164.447968 
M330.271240,187.138046 
	C330.957306,188.366211 331.643402,189.594391 332.329468,190.822571 
	C332.900421,190.010971 333.954865,189.206757 333.967377,188.386612 
	C334.091217,180.284653 334.042267,172.180038 334.042267,164.076187 
	C333.483368,163.840118 332.924500,163.604065 332.365601,163.368011 
	C331.667725,164.605087 330.672211,165.768509 330.343353,167.096939 
	C329.878021,168.976807 329.904694,170.978485 329.721100,172.928101 
	C329.127899,172.942307 328.534729,172.956512 327.941559,172.970718 
	C327.527740,169.969681 327.113922,166.968643 326.700104,163.967606 
	C326.249268,163.756531 325.798431,163.545456 325.347626,163.334381 
	C324.713837,164.491959 323.574829,165.631424 323.532593,166.810196 
	C323.336243,172.293198 323.272919,177.794693 323.518005,183.273666 
	C323.631287,185.806656 324.558380,188.303238 325.116547,190.816330 
	C325.845917,188.271729 326.711090,185.756058 327.261658,183.173325 
	C327.701447,181.110489 327.758087,178.965958 327.984802,176.857697 
	C328.746826,176.922577 329.508850,176.987457 330.270874,177.052338 
	C330.270874,180.113739 330.270874,183.175156 330.271240,187.138046 
M228.622147,184.318512 
	C229.098221,186.533905 229.574280,188.749313 230.050369,190.964722 
	C231.257584,189.866287 232.464798,188.767868 233.225739,188.075485 
	C234.674454,189.100296 236.351929,190.286942 239.050323,192.195786 
	C238.242462,188.457230 237.345795,186.383942 237.454163,184.364563 
	C237.661163,180.507370 238.810089,176.690323 238.908051,172.839813 
	C239.133240,163.988235 238.169067,163.269592 228.622330,164.143600 
	C228.622330,170.510361 228.622330,176.937012 228.622147,184.318512 
M345.086151,163.847214 
	C343.289246,172.658325 341.492310,181.469437 339.695404,190.280533 
	C340.157623,190.625412 340.619812,190.970291 341.082031,191.315170 
	C342.075989,190.555313 343.170807,189.890564 344.018005,188.992294 
	C344.396271,188.591202 344.156647,187.670654 344.406067,187.072891 
	C345.152740,185.283401 346.002380,183.536865 346.811798,181.773560 
	C347.748901,183.588867 348.710449,185.392273 349.605103,187.228287 
	C349.815643,187.660477 349.635162,188.353149 349.920044,188.666199 
	C350.796783,189.629715 351.811859,190.467407 352.773163,191.353989 
	C353.120087,190.996735 353.467041,190.639481 353.813965,190.282211 
	C352.484192,182.433868 351.079163,174.597092 349.867676,166.730530 
	C349.472839,164.166794 348.262054,163.261826 345.086151,163.847214 
M218.454773,188.849930 
	C219.488419,189.660263 220.522064,190.470596 221.555710,191.280930 
	C221.059067,182.181198 219.734177,174.181198 218.142441,166.234634 
	C217.941620,165.232132 216.432480,164.027527 215.353821,163.817078 
	C214.542770,163.658875 212.726929,164.821381 212.594315,165.605072 
	C211.194931,173.875122 210.043961,182.187195 208.824463,190.487686 
	C209.408417,190.764969 209.992355,191.042267 210.576309,191.319550 
	C211.377975,189.978134 212.228699,188.663147 212.969147,187.288757 
	C213.942810,185.481506 214.829742,183.627502 215.753967,181.793610 
	C216.577408,183.710205 217.403549,185.625656 218.218994,187.545654 
	C218.281464,187.692764 218.268509,187.871918 218.454773,188.849930 
M287.278870,168.403488 
	C286.101929,162.080902 281.479401,164.055557 277.290405,164.081711 
	C277.290405,173.112686 277.290405,181.863449 277.290405,190.614212 
	C277.724487,190.880188 278.158569,191.146164 278.592651,191.412125 
	C279.681854,189.895523 280.771027,188.378937 281.548920,187.295792 
	C282.700989,188.351120 284.344788,189.856903 286.458252,191.792892 
	C286.805786,183.229797 287.089447,176.241531 287.278870,168.403488 
M265.200867,168.758652 
	C266.957611,167.536453 268.714325,166.314255 270.471069,165.092056 
	C267.737488,164.689484 265.004517,164.282593 262.268158,163.899872 
	C262.157196,163.884369 262.014313,164.097275 261.694183,164.363541 
	C261.694183,173.056961 261.694183,181.905670 261.694183,191.905350 
	C265.076843,190.903976 267.793030,190.099899 270.509186,189.295807 
	C268.858337,188.157745 267.207458,187.019684 265.310547,185.712006 
	C265.310547,183.243881 265.310547,180.282639 265.310547,177.200485 
	C266.108978,177.021011 266.776550,176.976456 267.348694,176.719437 
	C268.412170,176.241714 269.419983,175.640106 270.450989,175.090057 
	C269.441345,174.375610 268.297791,173.789398 267.458038,172.912292 
	C266.533875,171.947067 265.889099,170.714386 265.200867,168.758652 
M306.800842,186.401489 
	C308.993835,191.159744 312.613953,192.416336 315.293457,189.113708 
	C316.300598,187.872375 316.381470,185.841888 316.714325,184.137894 
	C316.756897,183.919830 315.405823,183.136063 315.311462,183.229767 
	C314.281494,184.252548 313.393494,185.416382 312.411835,186.491592 
	C312.249542,186.669357 311.822205,186.605133 310.963623,186.739212 
	C310.963623,180.473770 310.963623,174.292603 310.963623,167.935043 
	C313.046417,168.822479 314.708466,169.530655 316.862640,170.448517 
	C316.066437,165.222977 314.588013,163.608643 311.434448,163.879135 
	C307.931732,164.179596 306.631989,166.484604 306.611298,169.669861 
	C306.576843,174.970703 306.650970,180.272247 306.800842,186.401489 
M405.556763,176.102707 
	C407.234253,171.185486 402.282501,174.025284 400.836609,171.829071 
	C400.910767,170.787903 401.020538,169.247238 401.130280,167.706558 
	C401.452606,167.911484 401.774933,168.116409 402.097260,168.321320 
	C403.372437,167.251724 404.647644,166.182129 405.922821,165.112518 
	C404.375214,164.620178 402.856598,163.945587 401.270813,163.693527 
	C400.015625,163.494003 398.678009,163.813065 397.313293,163.906189 
	C397.313293,173.013306 397.313293,181.883667 397.313293,190.805420 
	C400.265869,190.805420 402.873352,190.805420 405.480865,190.805420 
	C405.756531,190.336853 406.032196,189.868271 406.307892,189.399704 
	C404.648102,188.275070 402.988281,187.150436 400.789062,185.660294 
	C400.789062,184.384674 401.000000,182.382324 400.742188,180.442245 
	C400.296844,177.091370 402.146179,176.451645 405.556763,176.102707 
M248.566910,191.029388 
	C250.527847,191.029388 252.488800,191.029388 254.449738,191.029388 
	C254.710922,190.470795 254.972107,189.912201 255.233292,189.353607 
	C253.532379,188.229416 251.831467,187.105240 249.916779,185.839752 
	C249.916779,183.291153 249.916779,180.342224 249.916779,178.043289 
	C251.860580,176.764313 253.338364,175.791962 254.816147,174.819611 
	C253.197449,173.850204 251.578766,172.880814 249.216492,171.466095 
	C249.886993,170.251617 250.466263,168.701508 251.477966,167.522446 
	C252.345947,166.510849 253.708496,165.923630 254.852325,165.148712 
	C253.305664,164.640533 251.789810,163.943817 250.202499,163.684250 
	C248.948044,163.479126 247.605728,163.811218 245.922913,163.931976 
	C245.922913,172.449249 245.884293,180.752472 245.996979,189.053650 
	C246.005890,189.710220 247.065170,190.352524 248.566910,191.029388 
M201.999283,184.654327 
	C201.458862,184.159225 200.512238,183.179214 200.438339,183.241089 
	C199.127518,184.339142 197.922806,185.563873 196.153122,187.290024 
	C196.153122,180.427704 196.153122,174.205627 196.153122,167.898285 
	C198.195328,168.901291 199.805038,169.691879 201.908783,170.725098 
	C202.101547,166.020981 200.485352,163.829056 196.772476,163.911575 
	C192.951401,163.996475 191.821518,166.562134 191.880432,170.032120 
	C191.962280,174.854477 191.968246,179.680481 191.878632,184.502563 
	C191.818832,187.720367 192.857452,190.310715 196.235153,190.727219 
	C199.853226,191.173355 201.726669,188.990326 201.999283,184.654327 
z"/>
<path fill="#3792DE" opacity="1.000000" stroke="none" 
	d="
M334.247437,71.239830 
	C336.973083,72.186211 339.385895,73.314163 342.447266,74.745300 
	C341.667694,95.446732 340.861267,116.861404 340.035767,138.782089 
	C338.768250,138.089264 337.843903,137.584000 336.641663,136.926849 
	C336.007843,137.916229 335.356354,138.933197 334.469910,140.316940 
	C326.885315,129.474472 319.486389,118.897461 311.583740,107.600349 
	C311.583740,118.081230 311.583740,127.573906 311.583740,137.304611 
	C307.022003,137.802429 302.309784,138.316666 296.809265,138.916931 
	C296.171600,117.229652 295.542725,95.841820 294.941254,75.385117 
	C297.692139,74.485001 299.803497,73.697510 301.968719,73.107750 
	C305.424316,72.166527 308.428406,72.702240 310.526428,75.993042 
	C314.641876,82.448166 318.795441,88.879044 322.953949,95.306564 
	C323.721313,96.492622 324.586365,97.615463 326.606354,98.531059 
	C326.606354,90.156807 326.606354,81.782562 326.606354,74.533882 
	C329.820831,73.168610 331.877716,72.294998 334.247437,71.239830 
z"/>
<path fill="#3792DE" opacity="1.000000" stroke="none" 
	d="
M366.927490,125.005028 
	C366.992889,128.494507 367.184418,131.495697 367.041962,134.480927 
	C366.988739,135.596909 366.274292,137.549118 365.661224,137.631531 
	C361.276184,138.220993 356.839478,138.426239 351.933838,138.789551 
	C351.287872,117.154900 350.653656,95.914207 350.044678,75.517792 
	C352.802887,74.555161 355.013916,73.627823 357.309357,73.018600 
	C360.812653,72.088799 363.711761,72.909218 365.788330,76.194847 
	C370.566803,83.755638 375.458130,91.245117 381.521851,98.611900 
	C381.521851,90.302452 381.521851,81.993004 381.521851,74.208847 
	C384.911224,73.232986 387.360229,72.527878 390.330933,71.672554 
	C392.000824,72.347511 394.479553,73.349396 397.582520,74.603600 
	C396.793701,95.393608 395.982300,116.778488 395.150146,138.710114 
	C393.834045,138.023865 392.935638,137.555405 391.678040,136.899658 
	C391.121277,137.873184 390.539307,138.890808 389.648804,140.447968 
	C381.996124,129.487625 374.620026,118.923439 366.920929,107.896606 
	C366.920929,113.899948 366.920929,119.205170 366.927490,125.005028 
z"/>
<path fill="#3792DE" opacity="1.000000" stroke="none" 
	d="
M248.877441,98.821007 
	C249.691757,95.231010 250.425430,92.045525 251.253036,88.452255 
	C249.265503,88.452255 247.849503,88.452255 246.074158,88.452255 
	C245.558060,83.471420 245.070099,78.762024 244.504684,73.305077 
	C253.394272,72.814232 262.761322,72.247452 272.136322,71.885895 
	C272.793121,71.860558 273.892578,73.249077 274.140228,74.156464 
	C279.910706,95.299622 285.591888,116.467155 291.426727,138.139694 
	C286.193268,138.887436 281.416992,139.569839 276.063171,140.334763 
	C275.191010,137.267166 274.337891,133.418396 272.929718,129.784729 
	C272.452118,128.552368 270.588715,127.100128 269.331055,127.074043 
	C266.034424,127.005669 262.690094,127.502098 259.437012,128.141174 
	C258.479858,128.329208 257.431061,129.608505 257.010590,130.629211 
	C256.258270,132.455368 255.976700,134.471893 255.452820,136.396469 
	C254.281326,140.700363 251.355927,141.788315 247.266052,139.891037 
	C245.047134,138.861679 242.515945,138.505447 239.292633,137.615616 
	C242.317551,125.397102 245.557190,112.311310 248.877441,98.821007 
M265.018890,112.097450 
	C265.988342,111.371674 267.877838,110.471008 267.778503,109.948387 
	C267.115417,106.460197 266.027924,103.052681 265.078247,99.618965 
	C263.424957,103.169472 262.789917,106.562096 261.830444,109.860336 
	C261.037140,112.587273 262.341888,112.593430 265.018890,112.097450 
z"/>
<path fill="#3792DF" opacity="1.000000" stroke="none" 
	d="
M203.063416,72.981125 
	C209.846817,73.304733 216.297043,72.875153 222.402420,74.127159 
	C237.510193,77.225258 243.831619,88.527565 239.084991,103.330399 
	C234.478836,117.695206 223.676605,127.106750 212.092514,135.746979 
	C209.968140,137.331482 207.730911,139.055954 205.268433,139.810074 
	C203.021179,140.498260 199.277115,140.978317 198.163818,139.755524 
	C195.510437,136.841156 192.526016,132.946960 192.331207,129.306412 
	C191.640152,116.393410 192.061676,103.420876 192.061676,90.363342 
	C189.612869,90.011826 188.365768,89.832802 187.118164,89.653717 
	C186.861740,84.788078 186.614243,80.091660 186.317017,74.451759 
	C191.515411,73.985336 197.044357,73.489258 203.063416,72.981125 
M206.769196,110.475349 
	C206.769196,113.723557 206.769196,116.971764 206.769196,121.057655 
	C213.789856,116.261696 218.954895,111.038635 222.601456,104.470741 
	C224.699203,100.692390 227.172211,95.867493 223.643921,92.507767 
	C220.757599,89.759346 215.908112,88.920883 211.792358,87.693832 
	C210.257309,87.236183 208.335083,88.077217 206.760315,88.301712 
	C206.760315,95.634712 206.760315,102.571854 206.769196,110.475349 
z"/>
<path fill="#3892DF" opacity="1.000000" stroke="none" 
	d="
M410.516388,93.512474 
	C407.247131,88.489174 404.190033,83.759491 400.752655,78.441521 
	C404.529205,78.162674 407.269257,77.606888 409.199615,73.991562 
	C410.526031,71.507347 414.131012,70.513664 416.572113,74.821220 
	C419.749908,80.428650 423.652161,85.625526 427.635925,91.587715 
	C431.042267,84.426529 434.147095,77.854401 437.292725,71.301826 
	C439.425293,66.859512 441.993652,66.756981 445.115845,70.661156 
	C445.845917,71.574051 447.526062,71.732536 448.774780,72.223694 
	C449.988434,72.701073 451.209381,73.159973 452.911835,73.812874 
	C448.463898,83.312584 444.312866,92.691940 439.691376,101.833450 
	C437.353394,106.458069 436.417694,111.052643 436.638458,116.189041 
	C436.944244,123.303162 436.715240,130.440262 436.715240,137.794769 
	C431.833191,138.256912 427.095520,138.705383 421.225739,139.261017 
	C421.225739,132.088089 421.006653,124.650757 421.300262,117.233719 
	C421.507355,112.002502 420.354706,107.503059 417.067474,103.365005 
	C414.698090,100.382393 412.823700,97.006546 410.516388,93.512474 
z"/>
<path fill="#3C94DF" opacity="1.000000" stroke="none" 
	d="
M153.110519,138.082550 
	C145.758408,143.820816 138.684433,149.337036 131.103790,155.248367 
	C129.580597,153.389481 128.170364,151.668457 126.453217,149.572876 
	C134.931305,142.841446 143.206589,136.271027 152.046082,129.252655 
	C143.451050,122.434448 135.185425,115.877563 126.505608,108.992096 
	C127.969818,107.113762 129.247696,105.474464 130.996841,103.230591 
	C141.932220,111.826523 152.690079,120.282913 164.102142,129.253555 
	C160.229614,132.364655 156.809143,135.112595 153.110519,138.082550 
z"/>
<path fill="#3C94DF" opacity="1.000000" stroke="none" 
	d="
M58.748581,127.984398 
	C69.196037,119.713081 79.351517,111.663490 89.880447,103.317894 
	C91.444191,105.193161 92.787270,106.803810 94.547440,108.914642 
	C86.086769,115.634079 77.815056,122.203453 68.964722,129.232361 
	C77.628098,136.116516 85.892738,142.683823 94.401276,149.444931 
	C93.025040,151.290497 91.763580,152.982162 90.087158,155.230286 
	C85.665619,151.809235 81.379395,148.520477 77.123405,145.193054 
	C71.482918,140.783203 65.811348,136.409424 60.290966,131.853149 
	C59.330460,131.060394 59.050755,129.442764 58.748581,127.984398 
z"/>
<path fill="#3A93DF" opacity="1.000000" stroke="none" 
	d="
M110.989632,142.060028 
	C109.436493,147.878876 107.935677,153.291809 106.282921,159.252747 
	C103.922806,158.719879 101.749130,158.229095 98.941559,157.595200 
	C104.277435,138.073456 109.543648,118.806564 114.954300,99.011223 
	C117.400772,99.727745 119.516800,100.347481 122.020012,101.080620 
	C118.300125,114.828850 114.671043,128.241486 110.989632,142.060028 
z"/>
<path fill="#3F96E0" opacity="1.000000" stroke="none" 
	d="
M360.965912,164.114380 
	C365.114838,162.428757 367.178223,163.435226 367.186005,167.948807 
	C367.190216,170.385056 367.913971,172.820038 369.431519,175.293655 
	C369.431519,172.385147 369.232666,169.455948 369.531982,166.578568 
	C369.647369,165.468933 370.894440,164.477005 371.625916,163.431458 
	C372.133179,164.482803 373.063782,165.527573 373.080261,166.586578 
	C373.204102,174.540955 373.147766,182.498123 373.147766,190.774094 
	C371.065186,190.873230 369.481049,190.948639 367.554443,191.040344 
	C366.886871,187.657516 366.260803,184.484955 365.634735,181.312393 
	C365.323395,181.309982 365.012054,181.307571 364.700714,181.305161 
	C364.513367,184.396744 364.326019,187.488327 364.138702,190.579895 
	C363.696198,190.841583 363.253693,191.103271 362.811188,191.364960 
	C362.037415,190.204376 360.613861,189.054260 360.594940,187.881531 
	C360.469116,180.073029 360.643555,172.259720 360.965912,164.114380 
z"/>
<path fill="#4197E0" opacity="1.000000" stroke="none" 
	d="
M330.271057,186.687302 
	C330.270874,183.175156 330.270874,180.113739 330.270874,177.052338 
	C329.508850,176.987457 328.746826,176.922577 327.984802,176.857697 
	C327.758087,178.965958 327.701447,181.110489 327.261658,183.173325 
	C326.711090,185.756058 325.845917,188.271729 325.116547,190.816330 
	C324.558380,188.303238 323.631287,185.806656 323.518005,183.273666 
	C323.272919,177.794693 323.336243,172.293198 323.532593,166.810196 
	C323.574829,165.631424 324.713837,164.491959 325.347626,163.334381 
	C325.798431,163.545456 326.249268,163.756531 326.700104,163.967606 
	C327.113922,166.968643 327.527740,169.969681 327.941559,172.970718 
	C328.534729,172.956512 329.127899,172.942307 329.721100,172.928101 
	C329.904694,170.978485 329.878021,168.976807 330.343353,167.096939 
	C330.672211,165.768509 331.667725,164.605087 332.365601,163.368011 
	C332.924500,163.604065 333.483368,163.840118 334.042267,164.076187 
	C334.042267,172.180038 334.091217,180.284653 333.967377,188.386612 
	C333.954865,189.206757 332.900421,190.010971 332.329468,190.822571 
	C331.643402,189.594391 330.957306,188.366211 330.271057,186.687302 
z"/>
<path fill="#3F96E0" opacity="1.000000" stroke="none" 
	d="
M228.622238,183.841095 
	C228.622330,176.937012 228.622330,170.510361 228.622330,164.143600 
	C238.169067,163.269592 239.133240,163.988235 238.908051,172.839813 
	C238.810089,176.690323 237.661163,180.507370 237.454163,184.364563 
	C237.345795,186.383942 238.242462,188.457230 239.050323,192.195786 
	C236.351929,190.286942 234.674454,189.100296 233.225739,188.075485 
	C232.464798,188.767868 231.257584,189.866287 230.050354,190.964722 
	C229.574280,188.749313 229.098221,186.533905 228.622238,183.841095 
M232.162521,171.724640 
	C232.163284,180.104736 232.163284,180.104736 234.479507,181.178925 
	C234.479507,176.535446 234.479507,171.875809 234.479507,167.216187 
	C233.944183,167.173920 233.408859,167.131638 232.873550,167.089371 
	C232.636566,168.336792 232.399582,169.584198 232.162521,171.724640 
z"/>
<path fill="#4499E1" opacity="1.000000" stroke="none" 
	d="
M345.457031,163.772278 
	C348.262054,163.261826 349.472839,164.166794 349.867676,166.730530 
	C351.079163,174.597092 352.484192,182.433868 353.813965,190.282211 
	C353.467041,190.639481 353.120087,190.996735 352.773163,191.353989 
	C351.811859,190.467407 350.796783,189.629715 349.920044,188.666199 
	C349.635162,188.353149 349.815643,187.660477 349.605103,187.228287 
	C348.710449,185.392273 347.748901,183.588867 346.811829,181.773560 
	C346.002380,183.536865 345.152740,185.283401 344.406067,187.072891 
	C344.156647,187.670654 344.396271,188.591202 344.018005,188.992294 
	C343.170807,189.890564 342.075989,190.555313 341.082031,191.315170 
	C340.619812,190.970291 340.157623,190.625412 339.695404,190.280533 
	C341.492310,181.469437 343.289246,172.658325 345.457031,163.772278 
z"/>
<path fill="#4197E0" opacity="1.000000" stroke="none" 
	d="
M218.372681,188.443054 
	C218.268509,187.871918 218.281464,187.692764 218.218994,187.545654 
	C217.403549,185.625656 216.577408,183.710205 215.753967,181.793610 
	C214.829742,183.627502 213.942810,185.481506 212.969147,187.288757 
	C212.228699,188.663147 211.377975,189.978134 210.576309,191.319550 
	C209.992355,191.042267 209.408417,190.764969 208.824463,190.487686 
	C210.043961,182.187195 211.194931,173.875122 212.594315,165.605072 
	C212.726929,164.821381 214.542770,163.658875 215.353821,163.817078 
	C216.432480,164.027527 217.941620,165.232132 218.142441,166.234634 
	C219.734177,174.181198 221.059067,182.181198 221.555710,191.280930 
	C220.522064,190.470596 219.488419,189.660263 218.372681,188.443054 
z"/>
<path fill="#3F96E0" opacity="1.000000" stroke="none" 
	d="
M287.325989,168.828369 
	C287.089447,176.241531 286.805786,183.229797 286.458252,191.792892 
	C284.344788,189.856903 282.700989,188.351120 281.548920,187.295792 
	C280.771027,188.378937 279.681854,189.895523 278.592651,191.412125 
	C278.158569,191.146164 277.724487,190.880188 277.290405,190.614212 
	C277.290405,181.863449 277.290405,173.112686 277.290405,164.081711 
	C281.479401,164.055557 286.101929,162.080902 287.325989,168.828369 
M283.623993,180.561218 
	C283.562256,176.083572 284.989685,171.358185 281.751312,167.351013 
	C280.832520,171.527863 280.752472,175.609299 280.931030,179.679367 
	C280.954041,180.204056 282.316895,180.669983 283.623993,180.561218 
z"/>
<path fill="#3892DF" opacity="1.000000" stroke="none" 
	d="
M384.982849,172.907532 
	C386.465515,172.907532 387.948151,172.907532 390.050446,172.907532 
	C390.050446,177.798599 390.255219,182.544739 389.977814,187.262527 
	C389.795837,190.357300 387.288635,191.679993 384.644348,190.850067 
	C382.849213,190.286652 380.293427,188.358368 380.180267,186.879578 
	C379.688721,180.456223 379.707550,173.955399 380.160675,167.526413 
	C380.267792,166.006683 382.627655,163.744598 384.223816,163.482162 
	C385.848236,163.215088 388.053131,164.719345 389.503937,166.009979 
	C390.095764,166.536484 389.371948,168.541931 389.246704,169.874512 
	C388.255676,169.311111 387.161377,168.866714 386.317322,168.133987 
	C385.896667,167.768799 385.934296,166.875732 385.764618,166.221466 
	C385.230774,166.518402 384.696930,166.815353 384.163086,167.112289 
	C384.007050,168.461884 383.851044,169.811478 383.516357,171.925171 
	C383.281403,176.654663 383.099243,180.624969 383.254700,184.582031 
	C383.295044,185.609009 384.391113,186.594498 385.002258,187.599030 
	C385.635773,186.613815 386.886292,185.567490 386.795807,184.653992 
	C386.405914,180.717270 385.622803,176.819489 384.982849,172.907532 
z"/>
<path fill="#499CE1" opacity="1.000000" stroke="none" 
	d="
M265.161743,169.178436 
	C265.889099,170.714386 266.533875,171.947067 267.458038,172.912292 
	C268.297791,173.789398 269.441345,174.375610 270.450989,175.090057 
	C269.419983,175.640106 268.412170,176.241714 267.348694,176.719437 
	C266.776550,176.976456 266.108978,177.021011 265.310547,177.200485 
	C265.310547,180.282639 265.310547,183.243881 265.310547,185.712006 
	C267.207458,187.019684 268.858337,188.157745 270.509186,189.295807 
	C267.793030,190.099899 265.076843,190.903976 261.694183,191.905350 
	C261.694183,181.905670 261.694183,173.056961 261.694183,164.363541 
	C262.014313,164.097275 262.157196,163.884369 262.268158,163.899872 
	C265.004517,164.282593 267.737488,164.689484 270.471069,165.092056 
	C268.714325,166.314255 266.957611,167.536453 265.161743,169.178436 
z"/>
<path fill="#3F96E0" opacity="1.000000" stroke="none" 
	d="
M306.740112,185.987488 
	C306.650970,180.272247 306.576843,174.970703 306.611298,169.669861 
	C306.631989,166.484604 307.931732,164.179596 311.434448,163.879135 
	C314.588013,163.608643 316.066437,165.222977 316.862640,170.448517 
	C314.708466,169.530655 313.046417,168.822479 310.963623,167.935043 
	C310.963623,174.292603 310.963623,180.473770 310.963623,186.739212 
	C311.822205,186.605133 312.249542,186.669357 312.411835,186.491592 
	C313.393494,185.416382 314.281494,184.252548 315.311462,183.229767 
	C315.405823,183.136063 316.756897,183.919830 316.714325,184.137894 
	C316.381470,185.841888 316.300598,187.872375 315.293457,189.113708 
	C312.613953,192.416336 308.993835,191.159744 306.740112,185.987488 
z"/>
<path fill="#4197E0" opacity="1.000000" stroke="none" 
	d="
M405.191956,176.315887 
	C402.146179,176.451645 400.296844,177.091370 400.742188,180.442245 
	C401.000000,182.382324 400.789062,184.384674 400.789062,185.660294 
	C402.988281,187.150436 404.648102,188.275070 406.307892,189.399704 
	C406.032196,189.868271 405.756531,190.336853 405.480865,190.805420 
	C402.873352,190.805420 400.265869,190.805420 397.313293,190.805420 
	C397.313293,181.883667 397.313293,173.013306 397.313293,163.906189 
	C398.678009,163.813065 400.015625,163.494003 401.270813,163.693527 
	C402.856598,163.945587 404.375214,164.620178 405.922821,165.112518 
	C404.647644,166.182129 403.372437,167.251724 402.097260,168.321320 
	C401.774933,168.116409 401.452606,167.911484 401.130280,167.706558 
	C401.020538,169.247238 400.910767,170.787903 400.836609,171.829071 
	C402.282501,174.025284 407.234253,171.185486 405.191956,176.315887 
z"/>
<path fill="#4499E1" opacity="1.000000" stroke="none" 
	d="
M248.101593,191.015427 
	C247.065170,190.352524 246.005890,189.710220 245.996979,189.053650 
	C245.884293,180.752472 245.922913,172.449249 245.922913,163.931976 
	C247.605728,163.811218 248.948044,163.479126 250.202499,163.684250 
	C251.789810,163.943817 253.305664,164.640533 254.852325,165.148712 
	C253.708496,165.923630 252.345947,166.510849 251.477966,167.522446 
	C250.466263,168.701508 249.886993,170.251617 249.216492,171.466095 
	C251.578766,172.880814 253.197449,173.850204 254.816147,174.819611 
	C253.338364,175.791962 251.860580,176.764313 249.916779,178.043289 
	C249.916779,180.342224 249.916779,183.291153 249.916779,185.839752 
	C251.831467,187.105240 253.532379,188.229416 255.233292,189.353607 
	C254.972107,189.912201 254.710922,190.470795 254.449738,191.029388 
	C252.488800,191.029388 250.527847,191.029388 248.101593,191.015427 
z"/>
<path fill="#3F96E0" opacity="1.000000" stroke="none" 
	d="
M202.012222,185.044312 
	C201.726669,188.990326 199.853226,191.173355 196.235153,190.727219 
	C192.857452,190.310715 191.818832,187.720367 191.878632,184.502563 
	C191.968246,179.680481 191.962280,174.854477 191.880432,170.032120 
	C191.821518,166.562134 192.951401,163.996475 196.772476,163.911575 
	C200.485352,163.829056 202.101547,166.020981 201.908783,170.725098 
	C199.805038,169.691879 198.195328,168.901291 196.153122,167.898285 
	C196.153122,174.205627 196.153122,180.427704 196.153122,187.290024 
	C197.922806,185.563873 199.127518,184.339142 200.438339,183.241089 
	C200.512238,183.179214 201.458862,184.159225 202.012222,185.044312 
z"/>
<path fill="#BFDCF4" opacity="1.000000" stroke="none" 
	d="
M384.837036,172.686157 
	C385.622803,176.819489 386.405914,180.717270 386.795807,184.653992 
	C386.886292,185.567490 385.635773,186.613815 385.002258,187.599030 
	C384.391113,186.594498 383.295044,185.609009 383.254700,184.582031 
	C383.099243,180.624969 383.281403,176.654663 383.546875,172.343704 
	C384.067841,172.153671 384.379547,172.309235 384.837036,172.686157 
z"/>
<path fill="#E6F1FB" opacity="1.000000" stroke="none" 
	d="
M264.649597,112.129349 
	C262.341888,112.593430 261.037140,112.587273 261.830444,109.860336 
	C262.789917,106.562096 263.424957,103.169472 265.078247,99.618965 
	C266.027924,103.052681 267.115417,106.460197 267.778503,109.948387 
	C267.877838,110.471008 265.988342,111.371674 264.649597,112.129349 
z"/>
<path fill="#FBFDFE" opacity="1.000000" stroke="none" 
	d="
M206.764755,109.992172 
	C206.760315,102.571854 206.760315,95.634712 206.760315,88.301712 
	C208.335083,88.077217 210.257309,87.236183 211.792358,87.693832 
	C215.908112,88.920883 220.757599,89.759346 223.643921,92.507767 
	C227.172211,95.867493 224.699203,100.692390 222.601456,104.470741 
	C218.954895,111.038635 213.789856,116.261696 206.769196,121.057655 
	C206.769196,116.971764 206.769196,113.723557 206.764755,109.992172 
z"/>
<path fill="#E6F1FB" opacity="1.000000" stroke="none" 
	d="
M232.162567,171.278137 
	C232.399582,169.584198 232.636566,168.336792 232.873550,167.089371 
	C233.408859,167.131638 233.944183,167.173920 234.479507,167.216187 
	C234.479507,171.875809 234.479507,176.535446 234.479507,181.178925 
	C232.163284,180.104736 232.163284,180.104736 232.162567,171.278137 
z"/>
<path fill="#E6F1FB" opacity="1.000000" stroke="none" 
	d="
M283.341553,180.862167 
	C282.316895,180.669983 280.954041,180.204056 280.931030,179.679367 
	C280.752472,175.609299 280.832520,171.527863 281.751312,167.351013 
	C284.989685,171.358185 283.562256,176.083572 283.341553,180.862167 
z"/>
</svg>